<svg width="60" height="60" viewBox="0 0 60 60" fill="none" xmlns="http://www.w3.org/2000/svg">
<g clip-path="url(#clip0)">
<path d="M40.097 19.4465C40.4156 19.3949 40.632 19.0947 40.5804 18.7761C40.5287 18.4575 40.2286 18.2411 39.9099 18.2927C39.5913 18.3444 39.3749 18.6445 39.4265 18.9631C39.4782 19.2818 39.7783 19.4982 40.097 19.4465Z" fill="#55C8F9"/>
<path d="M36.3365 44.9859C36.6593 44.9859 36.921 44.7242 36.921 44.4013C36.921 44.0785 36.6593 43.8168 36.3365 43.8168C36.0136 43.8168 35.752 44.0785 35.752 44.4013C35.752 44.7242 36.0136 44.9859 36.3365 44.9859Z" fill="#55C8F9"/>
<path d="M25.1138 16.2276C25.4366 16.2276 25.6983 15.9659 25.6983 15.6431C25.6983 15.3203 25.4366 15.0586 25.1138 15.0586C24.791 15.0586 24.5293 15.3203 24.5293 15.6431C24.5293 15.9659 24.791 16.2276 25.1138 16.2276Z" fill="#55C8F9"/>
<path d="M21.3223 41.7634C21.6451 41.7634 21.9068 41.5017 21.9068 41.1789C21.9068 40.8561 21.6451 40.5944 21.3223 40.5944C20.9995 40.5944 20.7378 40.8561 20.7378 41.1789C20.7378 41.5017 20.9995 41.7634 21.3223 41.7634Z" fill="#55C8F9"/>
<path d="M38.6742 21.4519C36.4627 19.2411 30.0653 24.4692 27.7791 26.6881C26.8826 26.1576 25.705 26.2771 24.9351 27.047C24.0855 27.8966 24.0385 29.2112 24.7254 30.113C23.5292 31.68 22.5567 33.2649 21.966 34.6174C21.1677 36.4453 21.1185 37.7277 21.8196 38.4289C22.9682 39.5773 25.3341 38.558 26.7612 37.7865C28.8186 36.6742 31.166 34.869 33.2015 32.8339C35.512 30.5229 40.9723 23.7498 38.6742 21.4519ZM25.7618 27.8736C26.2173 27.4179 26.959 27.4178 27.4146 27.8736C27.8705 28.3294 27.8705 29.0712 27.4145 29.5272C26.9936 29.9485 26.3256 29.9865 25.857 29.6125C25.3277 29.1975 25.2571 28.3783 25.7618 27.8736ZM26.2052 36.7581C24.2309 37.8255 22.995 37.951 22.6463 37.6022C22.4189 37.3748 22.3849 36.5792 23.0373 35.0852C23.5896 33.8206 24.5072 32.3271 25.6417 30.8393C26.5136 31.2267 27.5491 31.0464 28.2413 30.3536C29.0093 29.5856 29.1303 28.4119 28.6043 27.516C33.0331 23.2104 37.0706 21.5015 37.8476 22.2786C39.1533 23.5841 35.028 29.3536 32.3749 32.0071C30.4161 33.9657 28.1673 35.6973 26.2052 36.7581Z" fill="#55C8F9"/>
<path d="M44.1112 38.2575H42.9421V37.0884C42.9421 36.7656 42.6804 36.5039 42.3576 36.5039C42.0348 36.5039 41.7731 36.7656 41.7731 37.0884V38.2575H40.604C40.2813 38.2575 40.0195 38.5191 40.0195 38.842C40.0195 39.1648 40.2813 39.4265 40.604 39.4265H41.7731V40.5955C41.7731 40.9184 42.0348 41.18 42.3576 41.18C42.6804 41.18 42.9421 40.9184 42.9421 40.5955V39.4265H44.1112C44.4339 39.4265 44.6957 39.1648 44.6957 38.842C44.6957 38.5191 44.434 38.2575 44.1112 38.2575Z" fill="#55C8F9"/>
<path d="M16.3462 21.4883H17.5153V22.6573C17.5153 22.9802 17.777 23.2418 18.0998 23.2418C18.4226 23.2418 18.6843 22.9802 18.6843 22.6573V21.4883H19.8533C20.1761 21.4883 20.4379 21.2266 20.4379 20.9038C20.4379 20.5809 20.1761 20.3193 19.8533 20.3193H18.6843V19.1502C18.6843 18.8274 18.4226 18.5657 18.0998 18.5657C17.777 18.5657 17.5153 18.8274 17.5153 19.1502V20.3193H16.3462C16.0235 20.3193 15.7617 20.5809 15.7617 20.9038C15.7617 21.2266 16.0235 21.4883 16.3462 21.4883Z" fill="#55C8F9"/>
<path d="M28.9209 42.7647C29.2438 42.7647 29.5055 42.503 29.5055 42.1802C29.5055 41.8574 29.2438 41.5957 28.9209 41.5957C28.5981 41.5957 28.3364 41.8574 28.3364 42.1802C28.3364 42.503 28.5981 42.7647 28.9209 42.7647Z" fill="#55C8F9"/>
<path d="M26.064 44.4953C26.3643 44.377 26.5118 44.0375 26.3935 43.7372C26.2752 43.4368 25.9358 43.2894 25.6354 43.4076C21.9371 44.8649 18.9406 44.8252 17.4143 43.2988C14.3319 40.2166 17.5257 31.6146 24.249 24.8908C30.774 18.3663 39.3787 14.9 42.5349 18.056C44.2439 19.7651 44.2522 23.0647 42.5807 26.9474C41.4759 26.6345 40.2708 26.9332 39.4352 27.7688C38.1867 29.0175 38.177 31.0341 39.4146 32.2938C38.4738 33.5366 37.0419 35.244 35.8224 36.4641C34.078 38.2083 32.1837 39.7443 30.1921 41.0296C29.9208 41.2047 29.8428 41.5664 30.0179 41.8377C30.1938 42.1103 30.5561 42.1861 30.8259 42.0119C32.8871 40.6818 34.8462 39.0933 36.649 37.2907C37.9155 36.0236 39.4028 34.2488 40.3711 32.9669C40.7967 33.1623 41.2523 33.2591 41.7065 33.2591C42.5352 33.2591 43.3584 32.9387 43.9817 32.3154C45.2348 31.0623 45.2348 29.0228 43.9817 27.7688C43.8716 27.6588 43.754 27.5578 43.6305 27.4655C45.0587 24.1702 45.9221 19.7901 43.3616 17.2294C38.6763 12.5444 28.2087 19.2782 23.4224 24.0642C18.6514 28.8356 11.8914 39.4292 16.5876 44.1255C18.9191 46.4569 22.9936 45.7051 26.064 44.4953ZM43.1551 31.4887C42.4537 32.1901 41.3552 32.2892 40.5431 31.7245C39.4991 30.9981 39.3542 29.5031 40.2618 28.5955C41.0719 27.7853 42.366 27.8063 43.1549 28.5954C43.9525 29.3933 43.9525 30.6913 43.1551 31.4887Z" fill="#55C8F9"/>
</g>
<circle cx="30" cy="30" r="27.5" stroke="#55C8F9" stroke-width="5"/>
<defs>
<clipPath id="clip0">
<rect width="30" height="30" fill="white" transform="translate(15 15)"/>
</clipPath>
</defs>
</svg>
