<svg width="60" height="60" viewBox="0 0 60 60" fill="none" xmlns="http://www.w3.org/2000/svg">
<circle cx="30" cy="30" r="27.5" stroke="#55C8F9" stroke-width="5"/>
<path d="M40.2616 33.0009C38.824 32.5159 37.0733 32.6918 35.9601 33.3622L35.9607 29.4693L37.4098 29.933C38.3059 30.2199 39.3736 30.1681 40.1847 29.7962C40.9745 29.4342 41.3391 28.8214 41.172 28.2281L40.3211 25.2054C40.2742 25.039 40.3649 24.8691 40.5641 24.751L44.213 22.5848C44.9269 22.1611 45.1789 21.539 44.8708 20.9615C44.5625 20.3841 43.7581 19.9712 42.7713 19.884L37.7294 19.4383C37.4539 19.4138 37.2161 19.3086 37.0934 19.1575L34.8384 16.3741C34.3973 15.8298 33.5039 15.4918 32.5068 15.4917C32.5066 15.4917 32.5066 15.4917 32.5066 15.4917C31.5095 15.4917 30.616 15.8298 30.1748 16.3741L27.919 19.1572C27.7959 19.3088 27.5585 19.4139 27.2848 19.4382L22.2418 19.884C21.255 19.9712 20.4506 20.3841 20.1425 20.9615C19.8342 21.539 20.0862 22.161 20.8002 22.5847L24.4494 24.7513C24.6484 24.8692 24.7391 25.0389 24.6919 25.2056L23.8312 28.2642C23.6626 28.8627 24.0588 29.456 24.8653 29.8128C25.321 30.0143 25.8541 30.1168 26.3907 30.1167C26.8039 30.1167 27.2194 30.056 27.6032 29.933L29.4038 29.3568V31.1859C28.866 31.0136 28.2405 30.9295 27.5795 30.9656C26.9311 31.0011 26.309 31.1549 25.8065 31.4071C25.5727 31.5244 25.3692 31.6578 25.2002 31.8033C24.6084 31.4969 23.865 31.3298 23.0793 31.3298C22.2041 31.3298 21.3806 31.5376 20.7616 31.9146C20.2581 32.2205 19.9382 32.6087 19.8362 33.03C19.3643 32.8746 18.8338 32.792 18.2836 32.792C18.2805 32.792 18.2772 32.792 18.2744 32.792C17.4012 32.792 16.5795 32.9996 15.9602 33.3767C15.3395 33.7546 14.9986 34.2564 15 34.7886V38.1597C15 38.4983 15.0361 38.8458 15.1077 39.1932C15.179 39.5373 15.2857 39.8833 15.4246 40.2218C15.5424 40.5084 16.02 40.6828 16.4901 40.611C16.9608 40.5393 17.2469 40.2488 17.1294 39.9622C17.0074 39.665 16.9137 39.3612 16.8512 39.0596C16.7889 38.7567 16.7572 38.454 16.7572 38.1597V34.7875C16.7565 34.5409 16.9148 34.3085 17.2028 34.1332C17.4901 33.9582 17.8706 33.8619 18.2769 33.8619H18.2811C18.7216 33.8619 19.1337 33.9754 19.427 34.1798C19.6593 34.3416 19.7809 34.5515 19.7988 34.7662L19.8007 34.7899V35.5293C19.8007 35.8223 20.1715 36.0777 20.6524 36.0865C21.1499 36.0956 21.5578 35.8527 21.5578 35.5518L21.5577 33.3263C21.5577 33.0787 21.7158 32.8463 22.0033 32.6717C22.4058 32.4266 22.9919 32.3354 23.5699 32.4465C23.6456 32.4611 23.7191 32.4803 23.7887 32.5036C24.3055 32.6775 24.6011 32.9877 24.6021 33.3253C24.6021 33.3258 24.602 33.3261 24.602 33.3266V34.9173C24.602 35.2103 24.9727 35.4657 25.4536 35.4745C25.9511 35.4835 26.3591 35.2406 26.3591 34.9397L26.3593 32.9763C26.3593 32.7555 26.4724 32.537 26.7033 32.3667C26.9986 32.1488 27.4244 32.0273 27.8811 32.0273C28.718 32.0273 29.3992 32.4404 29.4035 32.9491C29.4035 32.9507 29.4032 32.9523 29.4032 32.9539V35.3933C29.4032 35.6863 29.7739 35.9417 30.2548 35.9505C30.7524 35.9595 31.1603 35.7166 31.1603 35.4157L31.1611 27.7789C31.1611 27.2684 31.8437 26.8531 32.6827 26.8531C33.0887 26.8531 33.4704 26.9494 33.7587 27.1248C34.0454 27.2991 34.2038 27.5319 34.2045 27.7796L34.204 38.2539C34.204 38.5548 34.6119 38.7977 35.1095 38.7886C35.5904 38.7799 35.9611 38.5244 35.9611 38.2314V36.5352C35.9611 35.7891 36.2666 35.0543 36.8585 34.401C36.8652 34.3937 36.8719 34.3862 36.8787 34.3788C37.3765 33.832 38.5126 33.6338 39.4103 33.9367C40.308 34.2399 40.6332 34.932 40.1354 35.479C39.3417 36.3501 39.3188 38.0671 39.3188 38.2575C39.3187 38.2733 39.2955 39.8563 38.3532 41.4246C37.1581 43.4133 35.0887 44.4217 32.2024 44.4217H25.0521C21.5035 44.4217 19.4518 42.9259 18.5364 42.0217C18.286 41.7743 17.7561 41.6756 17.3403 41.8182C16.9042 41.9677 16.7623 42.3063 17.0213 42.564C18.9191 44.4519 21.7713 45.4917 25.0521 45.4917H32.2024C35.8516 45.4917 38.549 44.2124 40.0032 41.7923C41.0499 40.0504 41.0752 38.335 41.0758 38.2602C41.0762 37.6381 41.2384 36.474 41.672 35.998C42.6388 34.9348 42.0065 33.5905 40.2616 33.0009ZM32.6821 25.7831C30.8742 25.7831 29.4034 26.6784 29.4034 27.7789V28.1481L26.7853 28.986C26.4949 29.0791 26.163 29.0644 25.8979 28.9471C25.6325 28.8297 25.5072 28.6421 25.5628 28.445L26.4236 25.3866C26.5687 24.8727 26.2889 24.3486 25.6754 23.9849L22.0265 21.8185C21.7916 21.6791 21.712 21.4823 21.8134 21.2922C21.9149 21.1021 22.1692 20.9715 22.4941 20.9428L27.538 20.4969C28.384 20.4216 29.1151 20.0979 29.4943 19.6308L31.7504 16.8475C31.8955 16.6684 32.1783 16.5615 32.5065 16.5615C32.8348 16.5615 33.1174 16.6684 33.2625 16.8474L35.5178 19.631C35.8965 20.0978 36.6282 20.4215 37.476 20.497L42.5189 20.9427C42.8436 20.9715 43.0982 21.1021 43.1997 21.2921C43.3012 21.4822 43.2214 21.679 42.9864 21.8184L39.3377 23.9846C38.7243 24.3485 38.4444 24.8726 38.5892 25.3861L39.4502 28.4448C39.5058 28.6418 39.3804 28.8295 39.1152 28.9469C38.8498 29.0642 38.5181 29.0788 38.2273 28.9857L35.9607 28.2605L35.9608 27.7784C35.9593 27.2441 35.6176 26.7429 34.9995 26.3674C34.3802 25.9907 33.5572 25.7831 32.6821 25.7831Z" fill="#55C8F9"/>
</svg>
