<svg width="60" height="60" viewBox="0 0 60 60" fill="none" xmlns="http://www.w3.org/2000/svg">
<path d="M47.0781 7.65883C47.0389 7.57677 46.981 7.51301 46.9126 7.47658C46.8443 7.44016 46.7689 7.43292 46.6973 7.45588C46.4953 7.5197 46.2847 7.52124 46.0822 7.46036C45.8796 7.39948 45.6905 7.27785 45.5297 7.10496C45.4726 7.04337 45.4022 7.00696 45.3285 7.0009C45.2548 6.99484 45.1816 7.01944 45.1191 7.0712C45.0566 7.12297 45.0082 7.19927 44.9805 7.28929C44.9529 7.37931 44.9476 7.47848 44.9652 7.57272C45.0146 7.83754 45.0165 8.11379 44.9709 8.37975C44.9252 8.64571 44.8333 8.89413 44.7023 9.10548C44.6555 9.18044 44.6279 9.27283 44.6232 9.36958C44.6186 9.46633 44.6373 9.56253 44.6765 9.64459C44.7158 9.72664 44.7737 9.79039 44.842 9.82681C44.9104 9.86323 44.9857 9.87048 45.0574 9.84753C45.2594 9.78371 45.4699 9.78218 45.6724 9.84305C45.875 9.90393 46.0641 10.0256 46.225 10.1984C46.282 10.26 46.3524 10.2964 46.4261 10.3024C46.4998 10.3085 46.5731 10.2839 46.6355 10.2321C46.698 10.1803 46.7464 10.104 46.774 10.014C46.8017 9.924 46.807 9.82484 46.7893 9.7306C46.74 9.46579 46.7381 9.18954 46.7837 8.92358C46.8293 8.65762 46.9213 8.4092 47.0523 8.19784C47.0991 8.12291 47.1267 8.03054 47.1314 7.93382C47.136 7.83709 47.1174 7.74089 47.0781 7.65883ZM46.0595 9.03031C45.9075 8.95935 45.7497 8.91206 45.5893 8.88943C45.6428 8.69019 45.6784 8.48338 45.6954 8.27325C45.8474 8.34419 46.0052 8.39147 46.1656 8.41412C46.112 8.61336 46.0764 8.82017 46.0595 9.03031Z" fill="#55C8F9"/>
<path d="M50.3825 20.7358C50.3304 20.8047 50.2962 20.8933 50.2846 20.9892C50.273 21.085 50.2847 21.1833 50.318 21.2699C50.4112 21.5135 50.4601 21.7822 50.461 22.0548C50.4618 22.3274 50.4146 22.5966 50.3229 22.8412C50.2902 22.928 50.279 23.0262 50.291 23.1219C50.303 23.2175 50.3375 23.3058 50.3898 23.3742C50.442 23.4426 50.5093 23.4876 50.5821 23.503C50.6549 23.5184 50.7295 23.5033 50.7954 23.4598C50.9815 23.3381 51.1864 23.2746 51.3941 23.2743C51.6019 23.274 51.8069 23.3368 51.9932 23.458C52.0593 23.5012 52.1341 23.5159 52.2069 23.5001C52.2798 23.4843 52.347 23.4387 52.399 23.3698C52.4511 23.301 52.4853 23.2123 52.4969 23.1165C52.5084 23.0206 52.4967 22.9224 52.4634 22.8358C52.3702 22.5922 52.3213 22.3235 52.3204 22.0509C52.3196 21.7782 52.3669 21.509 52.4585 21.2644C52.4913 21.1776 52.5025 21.0794 52.4905 20.9838C52.4785 20.8882 52.4439 20.7999 52.3917 20.7315C52.3394 20.6631 52.2722 20.618 52.1994 20.6027C52.1266 20.5873 52.0519 20.6024 51.986 20.6458C51.8 20.7676 51.5951 20.8311 51.3873 20.8314C51.1795 20.8317 50.9745 20.7689 50.7882 20.6477C50.7221 20.6045 50.6474 20.5898 50.5745 20.6056C50.5017 20.6214 50.4345 20.667 50.3825 20.7358ZM51.6311 21.7361C51.6128 21.9461 51.6134 22.1582 51.6327 22.3681C51.4725 22.3437 51.3107 22.3441 51.1505 22.3693C51.1687 22.1592 51.1681 21.9471 51.1488 21.7372C51.309 21.7615 51.4707 21.7611 51.6309 21.7361H51.6311Z" fill="#55C8F9"/>
<path d="M38.2318 14.548C38.1108 14.548 37.9925 14.5952 37.892 14.6835C37.7914 14.7719 37.713 14.8975 37.6667 15.0444C37.6204 15.1913 37.6083 15.353 37.6319 15.5089C37.6555 15.6649 37.7137 15.8082 37.7993 15.9206C37.8848 16.0331 37.9938 16.1097 38.1125 16.1407C38.2311 16.1717 38.3541 16.1558 38.4659 16.0949C38.5776 16.0341 38.6732 15.931 38.7404 15.7988C38.8076 15.6666 38.8434 15.5111 38.8434 15.3521C38.8433 15.1389 38.7788 14.9345 38.6641 14.7838C38.5494 14.633 38.394 14.5483 38.2318 14.548ZM38.2318 15.4723C38.2137 15.4723 38.196 15.4652 38.1809 15.452C38.1659 15.4388 38.1542 15.42 38.1473 15.398C38.1403 15.376 38.1385 15.3518 38.1421 15.3285C38.1456 15.3051 38.1544 15.2837 38.1672 15.2669C38.18 15.2501 38.1963 15.2386 38.214 15.234C38.2318 15.2294 38.2502 15.2318 38.2669 15.2409C38.2836 15.25 38.2979 15.2654 38.308 15.2852C38.318 15.305 38.3234 15.3283 38.3234 15.3521C38.3234 15.3679 38.321 15.3835 38.3164 15.3981C38.3118 15.4127 38.305 15.426 38.2965 15.4371C38.288 15.4483 38.2779 15.4571 38.2668 15.4632C38.2557 15.4692 38.2438 15.4723 38.2318 15.4723Z" fill="#55C8F9"/>
<path d="M52.899 19.0278C53.0303 19.0278 53.1586 18.9766 53.2677 18.8807C53.3769 18.7848 53.4619 18.6486 53.5121 18.4892C53.5623 18.3298 53.5755 18.1544 53.5499 17.9852C53.5243 17.8159 53.461 17.6605 53.3682 17.5385C53.2754 17.4165 53.1572 17.3334 53.0284 17.2998C52.8997 17.2661 52.7663 17.2834 52.645 17.3494C52.5238 17.4155 52.4201 17.5273 52.3472 17.6707C52.2743 17.8142 52.2354 17.9829 52.2354 18.1554C52.2356 18.3867 52.3055 18.6084 52.43 18.772C52.5544 18.9355 52.7231 19.0275 52.899 19.0278ZM52.899 18.1035C52.9069 18.1035 52.9145 18.1065 52.921 18.1122C52.9275 18.1179 52.9325 18.126 52.9355 18.1355C52.9385 18.145 52.9393 18.1555 52.9378 18.1655C52.9363 18.1756 52.9325 18.1848 52.927 18.1921C52.9214 18.1994 52.9144 18.2043 52.9067 18.2063C52.8991 18.2083 52.8911 18.2073 52.8839 18.2034C52.8767 18.1994 52.8705 18.1928 52.8662 18.1842C52.8619 18.1757 52.8596 18.1657 52.8596 18.1554C52.8596 18.1416 52.8637 18.1284 52.8711 18.1187C52.8785 18.109 52.8886 18.1035 52.899 18.1035Z" fill="#55C8F9"/>
<path d="M47.3273 13.3801C47.3271 13.2077 47.288 13.0391 47.215 12.8958C47.1419 12.7525 47.0382 12.6409 46.9169 12.575C46.7957 12.5092 46.6623 12.4921 46.5336 12.5259C46.4049 12.5597 46.2868 12.6429 46.194 12.7649C46.1013 12.887 46.0382 13.0424 46.0127 13.2116C45.9872 13.3808 46.0003 13.5562 46.0506 13.7155C46.1009 13.8749 46.1859 14.011 46.295 14.1068C46.4042 14.2026 46.5324 14.2538 46.6636 14.2538C46.8397 14.2534 47.0085 14.1611 47.1329 13.9974C47.2573 13.8336 47.3272 13.6116 47.3273 13.3801ZM46.6636 13.4308C46.6561 13.4306 46.6487 13.4274 46.6425 13.4217C46.6363 13.416 46.6315 13.408 46.6287 13.3987C46.6259 13.3894 46.6253 13.3793 46.6269 13.3695C46.6285 13.3598 46.6322 13.3509 46.6376 13.3439C46.6431 13.3369 46.6499 13.3322 46.6574 13.3304C46.6648 13.3285 46.6725 13.3296 46.6795 13.3335C46.6865 13.3373 46.6925 13.3438 46.6967 13.3521C46.7009 13.3604 46.7031 13.3702 46.7031 13.3801C46.703 13.3937 46.6988 13.4066 46.6914 13.4161C46.684 13.4256 46.6741 13.4309 46.6638 13.4308H46.6636Z" fill="#55C8F9"/>
<path d="M43.9531 27.0958C44.2047 27.0958 44.4087 26.8276 44.4087 26.4969C44.4087 26.1661 44.2047 25.898 43.9531 25.898C43.7015 25.898 43.4976 26.1661 43.4976 26.4969C43.4976 26.8276 43.7015 27.0958 43.9531 27.0958Z" fill="#55C8F9"/>
<path d="M37.9714 16.6334C37.8967 16.6334 37.8237 16.6625 37.7616 16.717C37.6995 16.7716 37.6511 16.8491 37.6225 16.9398C37.5939 17.0305 37.5864 17.1303 37.601 17.2265C37.6156 17.3228 37.6515 17.4113 37.7043 17.4807C37.7571 17.5501 37.8244 17.5974 37.8977 17.6165C37.9709 17.6357 38.0469 17.6258 38.1158 17.5882C38.1848 17.5507 38.2438 17.487 38.2853 17.4054C38.3268 17.3238 38.3489 17.2278 38.3489 17.1297C38.3488 16.9981 38.309 16.872 38.2382 16.7789C38.1674 16.6859 38.0715 16.6336 37.9714 16.6334Z" fill="#55C8F9"/>
<path d="M49.2063 13.9681C49.2862 13.9681 49.3642 13.937 49.4306 13.8787C49.4969 13.8204 49.5487 13.7376 49.5792 13.6406C49.6098 13.5437 49.6177 13.437 49.6022 13.3341C49.5866 13.2312 49.5481 13.1367 49.4917 13.0625C49.4352 12.9883 49.3633 12.9378 49.285 12.9173C49.2067 12.8968 49.1256 12.9073 49.0518 12.9475C48.9781 12.9877 48.9151 13.0557 48.8707 13.1429C48.8264 13.2302 48.8027 13.3328 48.8027 13.4377C48.8029 13.5783 48.8455 13.7131 48.9212 13.8125C48.9968 13.9119 49.0994 13.9679 49.2063 13.9681Z" fill="#55C8F9"/>
<path d="M43.5175 10.5235C43.5558 10.4888 43.5885 10.4444 43.6136 10.3929C43.6388 10.3415 43.6559 10.2839 43.664 10.2237C43.6722 10.1635 43.6711 10.1017 43.6609 10.042C43.6508 9.98232 43.6317 9.92587 43.6048 9.87595C43.5779 9.82602 43.5437 9.78362 43.5042 9.75119C43.4648 9.71876 43.4208 9.69695 43.3749 9.68703C43.329 9.67711 43.282 9.67927 43.2367 9.69339C43.1914 9.70751 43.1487 9.7333 43.1111 9.76928L41.3757 11.3851C41.3376 11.4199 41.3052 11.4644 41.2802 11.5158C41.2553 11.5672 41.2383 11.6246 41.2303 11.6847C41.2224 11.7448 41.2235 11.8063 41.2337 11.8658C41.2439 11.9253 41.263 11.9816 41.2898 12.0314C41.3166 12.0811 41.3506 12.1234 41.39 12.1558C41.4293 12.1882 41.4731 12.2101 41.5188 12.2201C41.5646 12.2301 41.6114 12.2281 41.6566 12.2143C41.7018 12.2004 41.7444 12.1749 41.7821 12.1393L43.5175 10.5235Z" fill="#55C8F9"/>
<path d="M43.9495 10.0175C44.0225 10.0175 44.0937 9.98754 44.1531 9.93172L44.167 9.9187C44.2052 9.88384 44.2378 9.83934 44.2629 9.78779C44.2879 9.73625 44.3049 9.67867 44.3129 9.61841C44.3209 9.55815 44.3198 9.4964 44.3095 9.43674C44.2992 9.37708 44.28 9.3207 44.253 9.27086C44.226 9.22103 44.1918 9.17873 44.1523 9.14643C44.1128 9.11412 44.0688 9.09245 44.0228 9.08267C43.9769 9.07289 43.9299 9.07519 43.8847 9.08944C43.8394 9.1037 43.7968 9.12962 43.7592 9.16571L43.7453 9.17873C43.6846 9.23557 43.6392 9.31633 43.6156 9.40933C43.5921 9.50233 43.5917 9.60277 43.6144 9.69612C43.6371 9.78948 43.6818 9.87092 43.742 9.92868C43.8023 9.98644 43.8749 10.0175 43.9495 10.0175Z" fill="#55C8F9"/>
<path d="M41.9062 12.3706L41.9044 12.3722C41.8276 12.4434 41.7753 12.5518 41.7592 12.6736C41.743 12.7954 41.7643 12.9206 41.8184 13.0218C41.8724 13.1229 41.9548 13.1918 42.0474 13.2132C42.1401 13.2346 42.2354 13.2068 42.3124 13.1359C42.3895 13.065 42.442 12.9568 42.4584 12.8351C42.4748 12.7133 42.4538 12.588 42.4 12.4866C42.3462 12.3853 42.2639 12.3161 42.1714 12.2943C42.0788 12.2726 41.9834 12.3 41.9062 12.3706Z" fill="#55C8F9"/>
<path d="M44.2908 10.1501L42.5397 11.7807C42.5014 11.8154 42.4687 11.8598 42.4435 11.9113C42.4184 11.9628 42.4012 12.0203 42.3931 12.0805C42.385 12.1408 42.386 12.2025 42.3962 12.2622C42.4064 12.3219 42.4255 12.3784 42.4524 12.4283C42.4793 12.4782 42.5134 12.5206 42.5529 12.5531C42.5923 12.5855 42.6363 12.6073 42.6822 12.6172C42.7282 12.6272 42.7751 12.625 42.8204 12.6109C42.8657 12.5968 42.9084 12.571 42.946 12.535L44.6972 10.9043C44.7352 10.8694 44.7677 10.825 44.7926 10.7736C44.8176 10.7221 44.8345 10.6647 44.8425 10.6046C44.8505 10.5446 44.8493 10.483 44.8391 10.4235C44.8289 10.364 44.8099 10.3077 44.7831 10.258C44.7562 10.2082 44.7222 10.1659 44.6829 10.1335C44.6436 10.1011 44.5998 10.0793 44.554 10.0692C44.5082 10.0592 44.4614 10.0612 44.4162 10.075C44.3711 10.0889 44.3284 10.1144 44.2908 10.15V10.1501Z" fill="#55C8F9"/>
<path d="M48.3468 24.3855C48.2929 24.2855 48.211 24.2177 48.1191 24.1971C48.0272 24.1765 47.9328 24.2047 47.8567 24.2755L46.941 25.1282C46.9027 25.1629 46.87 25.2073 46.8449 25.2588C46.8197 25.3102 46.8026 25.3678 46.7945 25.428C46.7863 25.4882 46.7874 25.55 46.7976 25.6097C46.8077 25.6694 46.8268 25.7258 46.8537 25.7758C46.8806 25.8257 46.9148 25.8681 46.9543 25.9005C46.9937 25.933 47.0377 25.9548 47.0836 25.9647C47.1295 25.9746 47.1765 25.9725 47.2218 25.9583C47.267 25.9442 47.3097 25.9184 47.3474 25.8824L48.2631 25.0298C48.3392 24.9589 48.3907 24.8512 48.4064 24.7304C48.4221 24.6096 48.4007 24.4855 48.3468 24.3855Z" fill="#55C8F9"/>
<path d="M48.7149 24.5056C48.7876 24.5057 48.8585 24.4761 48.9178 24.4208L49.0832 24.2668C49.1208 24.2317 49.1529 24.1872 49.1775 24.1359C49.2021 24.0845 49.2187 24.0273 49.2265 23.9674C49.2343 23.9076 49.233 23.8464 49.2228 23.7872C49.2126 23.728 49.1935 23.6721 49.1669 23.6225C49.1402 23.573 49.1063 23.5309 49.0673 23.4985C49.0282 23.4662 48.9847 23.4443 48.9391 23.4341C48.8936 23.4239 48.847 23.4255 48.802 23.439C48.757 23.4524 48.7144 23.4774 48.6768 23.5125L48.5115 23.6666C48.4505 23.7232 48.4048 23.8039 48.381 23.897C48.3573 23.9901 48.3567 24.0907 48.3794 24.1842C48.402 24.2778 48.4468 24.3594 48.5071 24.4173C48.5674 24.4751 48.6402 24.5063 48.7149 24.5061V24.5056Z" fill="#55C8F9"/>
<path d="M48.3653 25.2814L48.1052 25.5237C48.0671 25.5586 48.0347 25.603 48.0097 25.6544C47.9848 25.7058 47.9678 25.7633 47.9598 25.8233C47.9519 25.8834 47.953 25.945 47.9632 26.0045C47.9734 26.064 47.9924 26.1203 48.0193 26.17C48.0461 26.2198 48.0801 26.2621 48.1194 26.2945C48.1588 26.3269 48.2026 26.3487 48.2483 26.3588C48.2941 26.3688 48.3409 26.3668 48.3861 26.3529C48.4313 26.3391 48.4739 26.3136 48.5116 26.2779L48.7717 26.0357C48.81 26.001 48.8427 25.9566 48.8678 25.9051C48.893 25.8536 48.9101 25.7961 48.9182 25.7359C48.9264 25.6756 48.9253 25.6139 48.9151 25.5542C48.905 25.4945 48.8859 25.438 48.859 25.3881C48.8321 25.3382 48.7979 25.2958 48.7585 25.2633C48.719 25.2309 48.675 25.2091 48.6291 25.1992C48.5832 25.1893 48.5362 25.1914 48.4909 25.2055C48.4457 25.2197 48.403 25.2455 48.3653 25.2814Z" fill="#55C8F9"/>
<path d="M49.8564 23.8931L49.2079 24.4968C49.1702 24.5319 49.1382 24.5764 49.1136 24.6278C49.089 24.6791 49.0723 24.7364 49.0646 24.7962C49.0568 24.856 49.0581 24.9173 49.0683 24.9764C49.0786 25.0356 49.0976 25.0916 49.1243 25.1411C49.151 25.1906 49.1848 25.2327 49.2239 25.2651C49.263 25.2974 49.3065 25.3193 49.352 25.3295C49.3975 25.3397 49.4441 25.338 49.4892 25.3245C49.5342 25.3111 49.5767 25.2861 49.6144 25.251L50.2627 24.6473C50.301 24.6126 50.3337 24.5682 50.3589 24.5167C50.384 24.4653 50.4012 24.4078 50.4093 24.3475C50.4174 24.2873 50.4163 24.2255 50.4062 24.1658C50.396 24.1061 50.3769 24.0497 50.35 23.9998C50.3231 23.9499 50.2889 23.9075 50.2495 23.875C50.21 23.8426 50.1661 23.8208 50.1201 23.8109C50.0742 23.8009 50.0272 23.8031 49.982 23.8172C49.9367 23.8313 49.894 23.8571 49.8564 23.8931Z" fill="#55C8F9"/>
<path d="M42.4281 18.8253L41.1911 19.3992C41.1476 19.4194 41.1075 19.4506 41.0732 19.4912C41.0388 19.5318 41.0109 19.5808 40.991 19.6356C40.971 19.6904 40.9595 19.7497 40.957 19.8104C40.9546 19.871 40.9612 19.9316 40.9766 19.9889C40.992 20.0461 41.0157 20.0988 41.0466 20.1439C41.0775 20.1891 41.1148 20.2258 41.1564 20.252C41.1981 20.2782 41.2433 20.2933 41.2894 20.2966C41.3355 20.2998 41.3816 20.2911 41.4251 20.2709L42.6622 19.697C42.7057 19.6767 42.7458 19.6454 42.7801 19.6048C42.8144 19.5642 42.8424 19.5152 42.8623 19.4604C42.8822 19.4056 42.8937 19.3462 42.8961 19.2856C42.8986 19.225 42.8919 19.1643 42.8765 19.1071C42.8611 19.0498 42.8373 18.9972 42.8064 18.952C42.7755 18.9069 42.7382 18.8702 42.6965 18.844C42.6549 18.8179 42.6097 18.8027 42.5636 18.7995C42.5175 18.7963 42.4713 18.8051 42.4278 18.8253H42.4281Z" fill="#55C8F9"/>
<path d="M40.2352 19.8426L37.426 21.1459C37.3824 21.1661 37.3423 21.1973 37.308 21.2379C37.2737 21.2785 37.2457 21.3275 37.2258 21.3823C37.2059 21.437 37.1944 21.4964 37.1919 21.557C37.1894 21.6176 37.1961 21.6783 37.2114 21.7355C37.2268 21.7927 37.2506 21.8454 37.2815 21.8906C37.3123 21.9357 37.3496 21.9724 37.3913 21.9986C37.4329 22.0248 37.4781 22.0399 37.5242 22.0432C37.5703 22.0464 37.6164 22.0377 37.66 22.0175L40.4692 20.7142C40.5127 20.694 40.5528 20.6628 40.5872 20.6222C40.6215 20.5816 40.6494 20.5326 40.6694 20.4778C40.6893 20.4231 40.7008 20.3637 40.7033 20.3031C40.7057 20.2425 40.6991 20.1818 40.6837 20.1246C40.6684 20.0674 40.6446 20.0147 40.6137 19.9696C40.5829 19.9244 40.5455 19.8877 40.5039 19.8615C40.4622 19.8353 40.4171 19.8202 40.371 19.8169C40.3249 19.8137 40.2787 19.8224 40.2352 19.8426Z" fill="#55C8F9"/>
<path d="M36.4035 24.8749C36.1597 24.8749 35.9214 24.9699 35.7187 25.1479C35.516 25.3259 35.358 25.579 35.2647 25.875C35.1714 26.1711 35.147 26.4969 35.1946 26.8112C35.2421 27.1255 35.3595 27.4142 35.5319 27.6408C35.7043 27.8674 35.9239 28.0218 36.163 28.0843C36.4021 28.1468 36.6499 28.1147 36.8751 27.9921C37.1004 27.8695 37.2929 27.6618 37.4283 27.3953C37.5638 27.1289 37.636 26.8156 37.636 26.4951C37.6357 26.0656 37.5057 25.6538 37.2746 25.35C37.0436 25.0463 36.7303 24.8754 36.4035 24.8749ZM36.4035 27.1911C36.2988 27.1911 36.1964 27.1503 36.1094 27.0738C36.0223 26.9973 35.9544 26.8886 35.9143 26.7614C35.8743 26.6343 35.8638 26.4943 35.8842 26.3593C35.9046 26.2243 35.955 26.1003 36.0291 26.0029C36.1031 25.9056 36.1975 25.8393 36.3002 25.8125C36.4029 25.7856 36.5094 25.7994 36.6061 25.8521C36.7029 25.9048 36.7855 25.994 36.8437 26.1085C36.9019 26.2229 36.9329 26.3575 36.9329 26.4951C36.9328 26.6796 36.8769 26.8565 36.7777 26.987C36.6784 27.1174 36.5439 27.1908 36.4035 27.1911Z" fill="#55C8F9"/>
<path d="M32.0928 11.1945C26.6299 11.1945 22.1855 17.9432 22.1855 26.2385C22.1854 27.2798 22.2561 28.3184 22.3964 29.3376L21.708 29.7066C21.6636 29.7304 21.6227 29.7673 21.5877 29.815C21.5526 29.8628 21.5242 29.9206 21.5038 29.9851C21.4835 30.0496 21.4718 30.1196 21.4693 30.191C21.4668 30.2624 21.4735 30.3338 21.4892 30.4013L21.5439 30.6365L16.7101 33.2269C16.6657 33.2507 16.6249 33.2875 16.5898 33.3353C16.5548 33.3831 16.5263 33.4409 16.506 33.5054C16.4857 33.5699 16.4739 33.6399 16.4714 33.7113C16.4689 33.7827 16.4757 33.8541 16.4914 33.9216L16.5887 34.3404L13.7635 35.8544L13.7437 35.7689C13.728 35.7015 13.7037 35.6394 13.6723 35.5863C13.6408 35.5331 13.6027 35.4898 13.5603 35.459C13.5178 35.4281 13.4717 35.4103 13.4247 35.4065C13.3777 35.4026 13.3306 35.4129 13.2862 35.4367L12.2392 35.9977C12.1495 36.0458 12.0761 36.146 12.0351 36.2762C11.9941 36.4065 11.9888 36.5561 12.0204 36.6923L13.0147 40.9704C13.0303 41.0378 13.0546 41.0999 13.0861 41.1531C13.1175 41.2063 13.1556 41.2496 13.1981 41.2805C13.2406 41.3113 13.2867 41.3292 13.3337 41.333C13.3807 41.3368 13.4278 41.3265 13.4722 41.3027L14.519 40.7417C14.6086 40.6936 14.682 40.5935 14.7231 40.4632C14.7641 40.333 14.7694 40.1833 14.7377 40.0471L14.7179 39.9616L17.5431 38.4476L17.6405 38.8664C17.6561 38.9338 17.6804 38.996 17.7118 39.0492C17.7433 39.1024 17.7813 39.1457 17.8238 39.1766C17.8663 39.2074 17.9124 39.2253 17.9595 39.229C18.0065 39.2328 18.0536 39.2225 18.098 39.1986L20.954 37.6681C21.1298 38.52 21.4977 39.2507 21.993 39.7316L18.3694 49.8219C18.3464 49.8847 18.3319 49.9538 18.3265 50.0252C18.3212 50.0966 18.3253 50.1689 18.3385 50.2379C18.3516 50.3069 18.3737 50.3713 18.4033 50.4273C18.433 50.4833 18.4696 50.5299 18.5112 50.5643C18.5527 50.5987 18.5983 50.6203 18.6454 50.6278C18.6925 50.6353 18.74 50.6285 18.7854 50.608C18.8307 50.5874 18.873 50.5535 18.9096 50.508C18.9463 50.4626 18.9766 50.4066 18.999 50.3432L22.6486 40.1816C23.0951 40.3763 23.5688 40.3763 24.0153 40.1816L27.6648 50.3432C27.6871 50.4066 27.7175 50.4626 27.7542 50.508C27.7908 50.5535 27.833 50.5874 27.8784 50.608C27.9237 50.6285 27.9713 50.6353 28.0184 50.6278C28.0654 50.6203 28.1111 50.5987 28.1526 50.5643C28.1941 50.5299 28.2308 50.4833 28.2604 50.4273C28.2901 50.3713 28.3121 50.3069 28.3253 50.2379C28.3385 50.1689 28.3425 50.0966 28.3372 50.0252C28.3319 49.9538 28.3174 49.8847 28.2944 49.8219L24.6707 39.7319C25.1539 39.2621 25.5161 38.5545 25.6966 37.7274C27.4825 40.0295 29.7502 41.29 32.0928 41.2827C37.5557 41.2827 42 34.5337 42 26.2385C42 17.9433 37.5557 11.1945 32.0928 11.1945V11.1945ZM13.5719 40.0946L12.8161 36.8434L13.1867 36.6447L13.9424 39.8961L13.5719 40.0946ZM14.4795 38.9347L14.0021 36.8816L16.8273 35.3676L17.3046 37.4209L14.4795 38.9347ZM20.8429 36.573L18.1973 37.9906L17.287 34.0726L21.7826 31.6637L22.1454 33.2245C21.7516 33.5492 21.4227 34.0292 21.1934 34.6139C20.9641 35.1987 20.8429 35.8665 20.8426 36.547C20.8425 36.5557 20.8429 36.564 20.8429 36.573V36.573ZM23.3319 39.2384C23.0888 39.2387 22.8482 39.1625 22.6254 39.0146C22.6226 39.0128 22.6199 39.0107 22.6171 39.0089C22.2166 38.7401 21.8958 38.2555 21.7167 37.6486C21.5376 37.0418 21.513 36.3557 21.6475 35.7228C21.7821 35.09 22.0662 34.5553 22.4452 34.2219C22.8241 33.8885 23.2709 33.7802 23.6994 33.9177C24.1279 34.0553 24.5076 34.429 24.7652 34.9668C25.0229 35.5045 25.1402 36.1681 25.0945 36.8295C25.0488 37.4909 24.8434 38.1031 24.5179 38.548C24.1924 38.9929 23.7699 39.2388 23.3319 39.2384V39.2384ZM25.5666 34.8835C25.323 34.1282 24.9204 33.518 24.4227 33.1494C23.9249 32.7807 23.3604 32.6748 22.8185 32.8483L22.2849 30.5524L30.3885 26.2094L31.6471 31.6247L25.5666 34.8835ZM33.8476 31.6565L32.5739 32.3391L30.8147 24.7703L32.0885 24.0877L33.8476 31.6565ZM33.1214 25.2595C33.583 25.7651 33.9319 26.4728 34.1213 27.2878C34.3107 28.1028 34.3316 28.9863 34.1812 29.8199L33.1214 25.2595ZM32.0928 40.1938C29.7628 40.2008 27.519 38.8568 25.8198 36.4362C25.8164 36.2634 25.8052 36.0911 25.7865 35.9206L31.8861 32.6518L32.0169 33.2152C32.0326 33.2826 32.0569 33.3447 32.0883 33.3979C32.1198 33.4511 32.1579 33.4943 32.2004 33.5252C32.2428 33.556 32.2889 33.5739 32.3359 33.5777C32.3829 33.5815 32.43 33.5712 32.4744 33.5474L34.4244 32.5024C34.4688 32.4786 34.5097 32.4418 34.5447 32.394C34.5797 32.3462 34.6082 32.2884 34.6286 32.2239C34.6489 32.1594 34.6606 32.0894 34.6632 32.018C34.6657 31.9466 34.6589 31.8752 34.6432 31.8077L34.5351 31.3426C34.7852 30.6783 34.9381 29.9399 34.9834 29.1778C35.0288 28.4157 34.9654 27.6477 34.7977 26.9261C34.63 26.2045 34.3619 25.5462 34.0116 24.9961C33.6613 24.446 33.2371 24.0169 32.7678 23.7381L32.6454 23.2118C32.6298 23.1444 32.6055 23.0823 32.574 23.0291C32.5426 22.9759 32.5045 22.9327 32.462 22.9018C32.4195 22.871 32.3735 22.8531 32.3264 22.8493C32.2794 22.8455 32.2324 22.8558 32.188 22.8796L30.238 23.9246C30.1483 23.9726 30.0749 24.0728 30.0339 24.2031C29.9928 24.3333 29.9876 24.483 30.0192 24.6192L30.1501 25.1825L23.0798 28.9715C22.9621 28.0715 22.9028 27.1561 22.9026 26.2385C22.9026 18.5433 27.0253 12.2834 32.0928 12.2834C37.1602 12.2834 41.2829 18.5437 41.2829 26.2385C41.2829 33.9334 37.1602 40.1938 32.0928 40.1938V40.1938Z" stroke="#55C8F9"/>
<circle cx="30" cy="30" r="27.5" stroke="#55C8F9" stroke-width="5"/>
</svg>
