<svg width="100" height="100" viewBox="0 0 100 100" fill="none" xmlns="http://www.w3.org/2000/svg">
<path d="M41.9013 59.5247C41.3299 60.0767 40.9912 60.8042 40.9479 61.5724C40.9045 62.3406 41.1595 63.0975 41.6656 63.703C42.1717 64.3085 42.8947 64.7216 43.7006 64.8658C44.5066 65.01 45.341 64.8756 46.0494 64.4874C45.1412 62.901 43.9896 61.4481 42.6313 60.1752C42.3927 59.9514 42.1494 59.7345 41.9013 59.5247Z" fill="#55C8F9"/>
<path d="M27.8512 86.0791C27.8419 86.0791 27.8327 86.0809 27.8241 86.0844C27.8155 86.0878 27.8078 86.0928 27.8013 86.0991C27.7885 86.1116 27.7815 86.1284 27.7817 86.1457C27.782 86.163 27.7894 86.1796 27.8025 86.1918C27.8156 86.204 27.8333 86.2109 27.8518 86.2111C27.8703 86.2112 27.8881 86.2046 27.9014 86.1926C27.9082 86.1867 27.9137 86.1795 27.9173 86.1715C27.921 86.1635 27.9229 86.1548 27.9227 86.1461C27.9228 86.1374 27.9209 86.1287 27.9172 86.1207C27.9136 86.1126 27.9082 86.1053 27.9014 86.0993C27.8949 86.093 27.8871 86.088 27.8785 86.0845C27.8699 86.081 27.8606 86.0792 27.8512 86.0791Z" fill="#55C8F9"/>
<path d="M43.386 79.4893C42.4862 79.4881 41.6185 79.8025 40.9536 80.3709C40.2887 80.9392 39.8747 81.7202 39.793 82.5603C39.7113 83.4003 39.9678 84.2387 40.5121 84.9103C41.0565 85.582 41.8492 86.0385 42.7343 86.1898C44.2786 84.722 45.5485 83.021 46.4909 81.1582C46.1745 80.6493 45.7211 80.2272 45.1759 79.9343C44.6308 79.6414 44.0132 79.4879 43.3849 79.4893H43.386Z" fill="#55C8F9"/>
<path d="M30.0979 72.1689C29.6486 72.1693 29.2133 72.3157 28.8662 72.5832C28.519 72.8507 28.2816 73.2228 28.1943 73.6361C28.1069 74.0493 28.1751 74.4782 28.3872 74.8495C28.5993 75.2209 28.9422 75.5119 29.3575 75.6728C29.7727 75.8338 30.2347 75.8548 30.6646 75.7322C31.0945 75.6097 31.4658 75.3512 31.7152 75.0008C31.9646 74.6503 32.0767 74.2297 32.0325 73.8105C31.9882 73.3912 31.7902 72.9994 31.4723 72.7016C31.2919 72.5324 31.0777 72.3982 30.8418 72.3067C30.606 72.2153 30.3532 72.1685 30.0979 72.1689Z" fill="#55C8F9"/>
<path d="M40.4289 65.4061C39.4258 64.4659 38.8463 63.2004 38.8102 61.871C38.774 60.5417 39.284 59.2501 40.2346 58.2633C36.5552 55.7776 32.0744 54.5569 27.5471 54.8069C23.0199 55.0569 18.7229 56.7623 15.3802 59.6358C16.0543 59.9819 16.6475 60.4514 17.1244 61.0164C17.6013 61.5815 17.9523 62.2306 18.1565 62.9253C18.3607 63.62 18.414 64.346 18.3132 65.0604C18.2124 65.7747 17.9596 66.4628 17.5698 67.0838C17.1799 67.7048 16.661 68.246 16.0438 68.6754C15.4265 69.1048 14.7236 69.4135 13.9767 69.5833C13.2297 69.7532 12.454 69.7806 11.6956 69.6639C10.9371 69.5473 10.2114 69.289 9.56148 68.9044C8.59904 72.638 8.90286 76.5601 10.4306 80.1241C11.9583 83.6882 14.6339 86.7166 18.0844 88.7875C21.535 90.8584 25.5886 91.8685 29.6805 91.6772C33.7724 91.4858 37.6987 90.1025 40.9123 87.72C40.1606 87.3835 39.496 86.8976 38.9648 86.2959C38.4336 85.6943 38.0486 84.9915 37.8364 84.2362C37.6242 83.481 37.59 82.6915 37.7362 81.9226C37.8823 81.1537 38.2054 80.4239 38.6828 79.7839C39.1602 79.1439 39.7805 78.6091 40.5007 78.2165C41.2209 77.824 42.0236 77.5833 42.8531 77.511C43.6825 77.4387 44.5188 77.5367 45.3038 77.798C46.0888 78.0594 46.8036 78.4779 47.3987 79.0245C48.8541 74.8687 48.6989 70.3648 46.9605 66.3058C45.9129 66.8326 44.7125 67.0296 43.5363 66.8677C42.3602 66.7057 41.2708 66.1934 40.4291 65.4065L40.4289 65.4061ZM16.5725 78.3783C16.3049 78.6293 15.9528 78.7855 15.5761 78.8203C15.1995 78.8551 14.8216 78.7664 14.5069 78.5693C14.1922 78.3722 13.9602 78.0789 13.8503 77.7394C13.7404 77.3998 13.7594 77.0351 13.9042 76.7073C14.049 76.3794 14.3106 76.1088 14.6443 75.9415C14.9781 75.7742 15.3634 75.7206 15.7346 75.7898C16.1058 75.859 16.4399 76.0467 16.68 76.321C16.9202 76.5953 17.0514 76.9391 17.0514 77.2939C17.0521 77.4954 17.01 77.695 16.9278 77.8811C16.8456 78.0673 16.7248 78.2363 16.5725 78.3783ZM28.4271 59.8972C28.5791 59.7547 28.7594 59.6418 28.9579 59.5647C29.1564 59.4876 29.3692 59.4479 29.584 59.4479C29.7989 59.4479 30.0116 59.4876 30.2101 59.5647C30.4086 59.6418 30.589 59.7547 30.7409 59.8972C30.8928 60.0396 31.0133 60.2087 31.0955 60.3948C31.1777 60.5809 31.2201 60.7804 31.2201 60.9818C31.2201 61.1832 31.1777 61.3827 31.0955 61.5688C31.0133 61.7549 30.8928 61.924 30.7409 62.0664C30.434 62.3541 30.0179 62.5156 29.5839 62.5156C29.15 62.5156 28.7339 62.354 28.427 62.0663C28.1202 61.7786 27.9479 61.3884 27.9479 60.9816C27.9479 60.5748 28.1203 60.1846 28.4271 59.897V59.8972ZM29.4105 87.6071C29.0497 87.9454 28.575 88.1559 28.0672 88.2028C27.5595 88.2497 27.0501 88.13 26.6259 87.8643C26.2016 87.5985 25.8888 87.2031 25.7407 86.7453C25.5926 86.2876 25.6184 85.7958 25.8136 85.3539C26.0089 84.912 26.3616 84.5472 26.8115 84.3217C27.2615 84.0962 27.781 84.024 28.2814 84.1173C28.7818 84.2107 29.2322 84.4638 29.5559 84.8336C29.8795 85.2034 30.0564 85.6669 30.0564 86.1453C30.0567 86.4169 29.9999 86.6858 29.889 86.9367C29.7782 87.1876 29.6156 87.4155 29.4105 87.6073V87.6071ZM32.9814 76.6938C32.3142 77.3188 31.4366 77.7075 30.4979 77.7939C29.5593 77.8802 28.6178 77.6588 27.8338 77.1673C27.0498 76.6758 26.4718 75.9446 26.1983 75.0984C25.9248 74.2522 25.9727 73.3433 26.3338 72.5264C26.695 71.7096 27.347 71.0354 28.1789 70.6188C29.0107 70.2021 29.9709 70.0688 30.8959 70.2414C31.8209 70.4141 32.6534 70.882 33.2516 71.5656C33.8498 72.2492 34.1768 73.1061 34.1767 73.9903C34.1773 74.4925 34.072 74.9899 33.8669 75.4539C33.6618 75.9179 33.3608 76.3393 32.9814 76.6938Z" fill="#55C8F9"/>
<path d="M91.4407 39.1306L63.9174 64.9351C63.3936 65.4179 62.6875 65.6872 61.953 65.6843C61.2184 65.6814 60.5149 65.4065 59.9954 64.9196C59.476 64.4326 59.1829 63.773 59.1798 63.0843C59.1767 62.3956 59.4639 61.7337 59.9789 61.2426L78.887 43.5155C79.3638 43.0723 79.7426 42.5452 80.0016 41.9645C80.2605 41.3837 80.3946 40.7607 80.396 40.1312C80.3975 39.5017 80.2663 38.8782 80.0101 38.2964C79.7538 37.7145 79.3775 37.1859 78.9027 36.7408C78.428 36.2957 77.8641 35.9429 77.2435 35.7026C76.6229 35.4624 75.9579 35.3394 75.2864 35.3407C74.615 35.3421 73.9505 35.4678 73.331 35.7106C72.7116 35.9534 72.1494 36.3085 71.6767 36.7555L62.0484 45.7826C61.5247 46.2654 60.8186 46.5347 60.0841 46.5318C59.3495 46.5289 58.6459 46.254 58.1265 45.767C57.6071 45.2801 57.3139 44.6204 57.3108 43.9318C57.3077 43.2431 57.595 42.5812 58.11 42.0901L94.3431 8.12007C95.2807 7.22007 95.8021 6.00982 95.7942 4.75179C95.7862 3.49376 95.2496 2.28938 94.3007 1.39985C93.3518 0.510327 92.0671 0.00737699 90.7253 8.0505e-05C89.3834 -0.00721598 88.0926 0.48173 87.1328 1.36088L64.2021 22.8587C63.9435 23.1012 63.6365 23.2935 63.2986 23.4247C62.9608 23.5559 62.5986 23.6235 62.2329 23.6235C61.8672 23.6235 61.5051 23.556 61.1672 23.4248C60.8293 23.2936 60.5223 23.1013 60.2637 22.8588C60.0051 22.6164 59.8 22.3286 59.66 22.0118C59.5201 21.695 59.448 21.3555 59.448 21.0127C59.448 20.3202 59.7414 19.6561 60.2636 19.1665L67.992 11.921C68.9413 11.0232 69.4726 9.80946 69.4697 8.54531C69.4667 7.28115 68.9298 6.06956 67.9764 5.17567C67.0229 4.28178 65.7306 3.77838 64.3822 3.77563C63.0339 3.77288 61.7392 4.27101 60.7816 5.16101L47.8662 17.2698L47.8604 17.275L37.027 27.4315L37.0221 27.4363L8.4388 54.2343C4.42174 57.972 1.68021 62.7448 0.562409 67.9463C-0.555396 73.1479 0.000962413 78.5436 2.16082 83.4481C4.32068 88.3525 7.98658 92.5446 12.6929 95.4917C17.3993 98.4388 22.9337 100.008 28.5932 100C32.4232 100.003 36.2162 99.2982 39.755 97.925C43.2939 96.5519 46.509 94.5376 49.2162 91.9977L98.5234 45.771C99.4587 44.8896 99.983 43.6965 99.9813 42.4533C99.9796 41.21 99.4521 40.0182 98.5145 39.1391C97.5768 38.26 96.3055 37.7654 94.9795 37.7638C93.6534 37.7622 92.3808 38.2538 91.4407 39.1306ZM51.9551 34.1793C52.1561 33.9956 52.4262 33.8935 52.7069 33.8952C52.9876 33.8969 53.2563 34.0022 53.4548 34.1883C53.6532 34.3744 53.7655 34.6263 53.7673 34.8895C53.769 35.1526 53.6601 35.4058 53.4641 35.5943L39.1118 49.0504C38.9113 49.2367 38.6403 49.3409 38.358 49.3403C38.0758 49.3397 37.8053 49.2343 37.6058 49.0471C37.4062 48.86 37.2939 48.6064 37.2933 48.3418C37.2927 48.0772 37.404 47.8231 37.6027 47.6352L51.9551 34.1793ZM46.1494 55.6513L46.0971 55.7001C45.9983 55.7948 45.8804 55.8701 45.7503 55.9216C45.6201 55.9732 45.4804 56.0001 45.3391 56.0006C45.1979 56.0012 45.0579 55.9754 44.9273 55.9249C44.7967 55.8743 44.6782 55.8 44.5785 55.7061C44.4788 55.6123 44.3999 55.5008 44.3466 55.3782C44.2932 55.2555 44.2663 55.1242 44.2675 54.9918C44.2686 54.8593 44.2978 54.7284 44.3534 54.6066C44.4089 54.4849 44.4897 54.3746 44.5911 54.2823L44.6432 54.2335C44.844 54.0475 45.1152 53.9436 45.3975 53.9446C45.6799 53.9457 45.9502 54.0515 46.1495 54.2391C46.3487 54.4266 46.4606 54.6805 46.4606 54.9452C46.4605 55.2099 46.3487 55.4638 46.1494 55.6513ZM43.818 29.3616L45.8489 27.4573C46.0493 27.271 46.3203 27.1668 46.6026 27.1673C46.8848 27.1679 47.1553 27.2733 47.3549 27.4604C47.5544 27.6475 47.6668 27.9011 47.6674 28.1657C47.6681 28.4303 47.5569 28.6844 47.3582 28.8723L45.327 30.7774C45.2284 30.8722 45.1106 30.9477 44.9806 30.9996C44.8506 31.0514 44.7109 31.0785 44.5696 31.0794C44.4283 31.0802 44.2883 31.0547 44.1576 31.0044C44.0269 30.9541 43.9081 30.88 43.8082 30.7863C43.7083 30.6926 43.6293 30.5813 43.5756 30.4587C43.522 30.3362 43.4948 30.2049 43.4957 30.0724C43.4966 29.94 43.5256 29.809 43.5809 29.6871C43.6362 29.5652 43.7168 29.4548 43.818 29.3624V29.3616ZM27.3089 44.8394L39.4127 33.4915C39.6132 33.3052 39.8842 33.201 40.1664 33.2016C40.4487 33.2022 40.7191 33.3076 40.9187 33.4948C41.1182 33.6819 41.2306 33.9355 41.2311 34.2001C41.2317 34.4647 41.1205 34.7188 40.9218 34.9067L28.818 46.2544C28.617 46.4381 28.3469 46.5402 28.0662 46.5385C27.7855 46.5368 27.5168 46.4315 27.3183 46.2454C27.1199 46.0593 27.0076 45.8074 27.0058 45.5443C27.0041 45.2811 27.113 45.0279 27.3089 44.8394ZM22.921 48.9536C23.0958 48.7902 23.3256 48.6886 23.5713 48.6663C23.817 48.6439 24.0633 48.7021 24.2684 48.8309C24.4735 48.9597 24.6246 49.1512 24.696 49.3727C24.7674 49.5943 24.7547 49.8321 24.66 50.0459C24.5654 50.2596 24.3946 50.436 24.1768 50.5449C23.959 50.6539 23.7077 50.6887 23.4656 50.6434C23.2236 50.5981 23.0057 50.4756 22.8492 50.2966C22.6927 50.1177 22.6072 49.8934 22.6072 49.662C22.6079 49.3962 22.7207 49.1416 22.921 48.9536ZM48.6836 81.4816C48.6679 81.5208 48.6496 81.559 48.6288 81.5961C47.5445 83.8732 46.0233 85.9442 44.1409 87.7061C44.0502 87.7911 43.958 87.874 43.866 87.9572C43.8585 87.964 43.8515 87.971 43.8447 87.9772C39.7687 91.66 34.3263 93.7144 28.6656 93.707C23.0049 93.6997 17.5685 91.6312 13.5034 87.9379C9.43831 84.2446 7.06231 79.2153 6.87665 73.9111C6.691 68.6068 8.71021 63.4423 12.5083 59.5071C12.5784 59.403 12.6683 59.312 12.7736 59.2385C12.9348 59.0774 13.0983 58.9173 13.266 58.7601C16.8667 55.384 21.613 53.2943 26.6834 52.8525C31.7539 52.4108 36.8296 53.6447 41.0322 56.3408C45.2348 59.037 48.2999 63.0257 49.6971 67.6167C51.0942 72.2077 50.7356 77.1123 48.6832 81.4816H48.6836ZM52.5875 49.6149L49.3694 52.632C49.2705 52.7256 49.1528 52.7999 49.0231 52.8508C48.8935 52.9016 48.7544 52.9279 48.6138 52.9282C48.4733 52.9285 48.3341 52.9027 48.2042 52.8524C48.0743 52.8021 47.9562 52.7283 47.8569 52.6351C47.7575 52.542 47.6787 52.4313 47.6251 52.3095C47.5714 52.1877 47.544 52.0572 47.5443 51.9254C47.5446 51.7937 47.5727 51.6633 47.6269 51.5417C47.6811 51.4201 47.7604 51.3098 47.8602 51.217L51.0783 48.1999C51.1772 48.1064 51.2949 48.032 51.4246 47.9812C51.5542 47.9304 51.6933 47.9041 51.8339 47.9038C51.9744 47.9035 52.1136 47.9292 52.2435 47.9795C52.3734 48.0298 52.4915 48.1037 52.5908 48.1968C52.6902 48.29 52.769 48.4007 52.8226 48.5224C52.8763 48.6442 52.9037 48.7748 52.9034 48.9065C52.9031 49.0383 52.875 49.1687 52.8208 49.2903C52.7666 49.4118 52.6873 49.5222 52.5875 49.6149ZM55.113 77.4183L55.0007 77.5234C54.9017 77.6169 54.784 77.6912 54.6543 77.742C54.5247 77.7927 54.3855 77.819 54.245 77.8192C54.1045 77.8195 53.9653 77.7937 53.8354 77.7433C53.7055 77.693 53.5875 77.6191 53.4882 77.5259C53.3888 77.4327 53.3101 77.322 53.2565 77.2002C53.2029 77.0783 53.1755 76.9478 53.1759 76.8161C53.1763 76.6843 53.2044 76.5539 53.2587 76.4324C53.3129 76.3108 53.3923 76.2005 53.4921 76.1078L53.6042 76.0027C53.7033 75.9098 53.821 75.8362 53.9505 75.7859C54.08 75.7357 54.2188 75.7098 54.359 75.7099C54.4991 75.7099 54.6379 75.7359 54.7674 75.7862C54.8968 75.8365 55.0145 75.9103 55.1135 76.0032C55.2126 76.0962 55.2912 76.2065 55.3448 76.3279C55.3984 76.4493 55.4259 76.5795 55.4259 76.7109C55.4258 76.8423 55.3982 76.9724 55.3445 77.0938C55.2908 77.2151 55.2121 77.3254 55.113 77.4183ZM56.0718 30.3187L56.1079 30.2849C56.2066 30.1902 56.3245 30.1148 56.4546 30.0632C56.5847 30.0115 56.7244 29.9846 56.8657 29.9839C57.007 29.9833 57.147 30.009 57.2776 30.0595C57.4082 30.11 57.5268 30.1842 57.6266 30.278C57.7263 30.3718 57.8052 30.4833 57.8587 30.6059C57.9122 30.7285 57.9391 30.8598 57.938 30.9923C57.9369 31.1247 57.9078 31.2557 57.8523 31.3775C57.7968 31.4993 57.7161 31.6096 57.6148 31.7019L57.5789 31.7357C57.4798 31.8291 57.362 31.9033 57.2323 31.9539C57.1026 32.0045 56.9634 32.0306 56.8229 32.0307C56.6824 32.0308 56.5432 32.0048 56.4134 31.9544C56.2836 31.9039 56.1657 31.8299 56.0665 31.7366C55.9673 31.6433 55.8887 31.5326 55.8352 31.4108C55.7818 31.2889 55.7545 31.1584 55.755 31.0266C55.7555 30.8949 55.7837 30.7645 55.8381 30.6431C55.8925 30.5216 55.9719 30.4113 56.0718 30.3187ZM60.0295 72.8089L58.1394 74.5811C57.9393 74.7688 57.6678 74.8742 57.3847 74.8741C57.1017 74.8741 56.8302 74.7687 56.6301 74.581C56.4299 74.3934 56.3175 74.1388 56.3175 73.8735C56.3175 73.6081 56.43 73.3536 56.6302 73.1659L58.5204 71.3939C58.6191 71.2991 58.7368 71.2236 58.8668 71.1717C58.9968 71.1199 59.1365 71.0928 59.2778 71.0919C59.4191 71.0911 59.5592 71.1166 59.6899 71.1669C59.8206 71.2172 59.9393 71.2913 60.0392 71.385C60.1391 71.4787 60.2182 71.59 60.2718 71.7126C60.3255 71.8351 60.3526 71.9664 60.3517 72.0989C60.3508 72.2313 60.3218 72.3623 60.2665 72.4842C60.2112 72.6061 60.1306 72.7165 60.0295 72.8089Z" fill="#55C8F9"/>
<path d="M15.1748 66.7438C15.6067 66.3387 15.9217 65.8375 16.0903 65.287C16.2589 64.7365 16.2755 64.1549 16.1386 63.5967C16.0016 63.0386 15.7157 62.5222 15.3075 62.0961C14.8993 61.6699 14.3823 61.3481 13.8051 61.1606C12.2502 62.8425 11.0351 64.7759 10.2192 66.866C10.9043 67.4452 11.8005 67.7555 12.7226 67.7328C13.6447 67.7101 14.5223 67.3561 15.1739 66.744L15.1748 66.7438Z" fill="#55C8F9"/>
<path d="M55.0356 93.1406L53.0898 94.965C52.8911 95.1529 52.7799 95.407 52.7805 95.6716C52.7811 95.9362 52.8935 96.1898 53.0931 96.3769C53.2927 96.564 53.5632 96.6694 53.8454 96.6699C54.1276 96.6705 54.3986 96.5663 54.5991 96.38L56.5448 94.5555C56.7435 94.3676 56.8547 94.1136 56.8541 93.849C56.8535 93.5844 56.7411 93.3308 56.5415 93.1436C56.3419 92.9565 56.0715 92.8512 55.7892 92.8506C55.507 92.85 55.236 92.9543 55.0356 93.1406Z" fill="#55C8F9"/>
<path d="M78.2312 71.3941L61.1057 87.4493C61.0045 87.5417 60.924 87.6521 60.8686 87.774C60.8133 87.8959 60.7844 88.0269 60.7835 88.1593C60.7826 88.2918 60.8097 88.4231 60.8634 88.5456C60.917 88.6682 60.9961 88.7795 61.096 88.8732C61.1959 88.9669 61.3146 89.041 61.4453 89.0913C61.576 89.1416 61.7161 89.1671 61.8574 89.1663C61.9986 89.1655 62.1383 89.1383 62.2684 89.0865C62.3984 89.0346 62.5161 88.9591 62.6148 88.8643L79.7404 72.8085C79.9391 72.6205 80.0503 72.3665 80.0497 72.1019C80.0491 71.8373 79.9367 71.5837 79.7371 71.3966C79.5376 71.2095 79.2671 71.1041 78.9848 71.1035C78.7026 71.1029 78.4316 71.2072 78.2312 71.3935V71.3941Z" fill="#55C8F9"/>
<path d="M88.0864 62.1549L84.8207 65.2178C84.6247 65.4062 84.5158 65.6594 84.5176 65.9226C84.5194 66.1857 84.6316 66.4377 84.8301 66.6238C85.0286 66.8099 85.2973 66.9152 85.578 66.9169C85.8587 66.9185 86.1288 66.8165 86.3298 66.6328L89.5965 63.5691C89.6956 63.4762 89.7743 63.3658 89.8279 63.2445C89.8815 63.1231 89.9092 62.9929 89.9092 62.8615C89.9092 62.7301 89.8816 62.6 89.828 62.4786C89.7743 62.3572 89.6957 62.2469 89.5966 62.154C89.4975 62.061 89.3799 61.9873 89.2504 61.937C89.1209 61.8867 88.9821 61.8608 88.842 61.8608C88.7018 61.8608 88.563 61.8867 88.4335 61.937C88.304 61.9873 88.1864 62.061 88.0873 62.1539L88.0864 62.1549Z" fill="#55C8F9"/>
<path d="M41.8265 11.6179L37.6026 15.578C37.5028 15.6707 37.4235 15.781 37.3693 15.9026C37.315 16.0242 37.287 16.1546 37.2866 16.2863C37.2863 16.4181 37.3137 16.5486 37.3674 16.6704C37.421 16.7922 37.4997 16.9029 37.5991 16.9961C37.6985 17.0892 37.8165 17.1631 37.9464 17.2134C38.0763 17.2637 38.2155 17.2895 38.356 17.2892C38.4966 17.2889 38.6357 17.2627 38.7653 17.2119C38.895 17.161 39.0127 17.0867 39.1117 16.9932L43.3355 13.0329C43.4367 12.9405 43.5173 12.8301 43.5726 12.7082C43.6279 12.5863 43.6568 12.4553 43.6577 12.3229C43.6587 12.1904 43.6315 12.0591 43.5778 11.9366C43.5242 11.814 43.4451 11.7027 43.3452 11.609C43.2453 11.5154 43.1266 11.4412 42.9959 11.3909C42.8652 11.3406 42.7251 11.3151 42.5839 11.3159C42.4426 11.3168 42.3029 11.3439 42.1729 11.3957C42.0428 11.4476 41.9251 11.5231 41.8265 11.6179Z" fill="#55C8F9"/>
<path d="M10.8997 42.0276C11.0999 42.2152 11.3713 42.3206 11.6543 42.3206C11.9372 42.3206 12.2086 42.2152 12.4088 42.0276L32.5957 23.102C32.6948 23.0091 32.7734 22.8988 32.8271 22.7774C32.8807 22.656 32.9083 22.5259 32.9083 22.3945C32.9083 22.2631 32.8807 22.133 32.8271 22.0116C32.7735 21.8902 32.6949 21.7798 32.5958 21.6869C32.4967 21.594 32.379 21.5203 32.2495 21.47C32.1201 21.4197 31.9813 21.3938 31.8411 21.3938C31.701 21.3938 31.5622 21.4197 31.4327 21.4699C31.3032 21.5202 31.1855 21.5939 31.0864 21.6868L10.8997 40.6126C10.6996 40.8003 10.5872 41.0548 10.5872 41.3201C10.5872 41.5855 10.6996 41.84 10.8997 42.0276Z" fill="#55C8F9"/>
<path d="M3.15949 50.2852C3.29964 50.2854 3.43845 50.2596 3.56793 50.2093C3.69742 50.159 3.81503 50.0853 3.91402 49.9922L5.96948 48.0652C6.16965 47.8775 6.28211 47.623 6.28213 47.3576C6.28215 47.0922 6.16973 46.8377 5.96959 46.6501C5.76945 46.4624 5.49799 46.357 5.21492 46.3569C4.93186 46.3569 4.66039 46.4623 4.46022 46.65L2.40475 48.5772C2.25553 48.7172 2.15392 48.8955 2.11277 49.0895C2.07162 49.2836 2.09277 49.4848 2.17355 49.6676C2.25433 49.8504 2.39112 50.0067 2.56661 50.1166C2.74211 50.2265 2.94843 50.2852 3.15949 50.2852Z" fill="#55C8F9"/>
<path d="M89.9291 17.4328L85.8613 21.2467C85.6626 21.4346 85.5514 21.6887 85.552 21.9533C85.5526 22.2179 85.665 22.4715 85.8646 22.6586C86.0642 22.8457 86.3347 22.9511 86.6169 22.9517C86.8991 22.9523 87.1701 22.848 87.3706 22.6617L91.4384 18.848C91.5382 18.7552 91.6175 18.6449 91.6717 18.5233C91.7259 18.4018 91.754 18.2714 91.7544 18.1396C91.7547 18.0078 91.7272 17.8773 91.6736 17.7555C91.62 17.6337 91.5412 17.5231 91.4419 17.4299C91.3425 17.3367 91.2245 17.2628 91.0946 17.2125C90.9647 17.1622 90.8255 17.1365 90.685 17.1367C90.5444 17.137 90.4053 17.1633 90.2756 17.2141C90.146 17.2649 90.0283 17.3392 89.9293 17.4328H89.9291Z" fill="#55C8F9"/>
<path d="M98.1687 9.70828L96.1318 11.6179C96.0307 11.7104 95.9501 11.8208 95.8948 11.9427C95.8394 12.0646 95.8105 12.1955 95.8096 12.328C95.8087 12.4605 95.8358 12.5918 95.8895 12.7143C95.9431 12.8369 96.0222 12.9482 96.1221 13.0419C96.222 13.1355 96.3407 13.2097 96.4714 13.26C96.6021 13.3103 96.7422 13.3358 96.8835 13.335C97.0248 13.3341 97.1645 13.307 97.2945 13.2552C97.4245 13.2033 97.5422 13.1278 97.6409 13.0329L99.6778 11.1233C99.7789 11.0308 99.8595 10.9204 99.9148 10.7985C99.9702 10.6767 99.9991 10.5457 100 10.4132C100.001 10.2808 99.9738 10.1495 99.9201 10.0269C99.8665 9.90437 99.7874 9.79303 99.6875 9.69936C99.5876 9.60569 99.4689 9.53154 99.3382 9.48123C99.2075 9.43092 99.0674 9.40544 98.9261 9.40627C98.7848 9.4071 98.6451 9.43422 98.5151 9.48607C98.3851 9.53791 98.2674 9.61344 98.1687 9.70828Z" fill="#55C8F9"/>
</svg>
