<svg width="60" height="60" viewBox="0 0 60 60" fill="none" xmlns="http://www.w3.org/2000/svg">
<path d="M30 0C13.4176 0 0 13.4188 0 30C0 46.5824 13.4188 60 30 60C46.5824 60 60 46.5812 60 30C60 13.4176 46.5812 0 30 0ZM30 55.3125C16.0087 55.3125 4.6875 43.9904 4.6875 30C4.6875 16.0086 16.0096 4.6875 30 4.6875C43.9913 4.6875 55.3125 16.0096 55.3125 30C55.3125 43.9914 43.9904 55.3125 30 55.3125Z" fill="#55C8F9"/>
<path d="M30 15.1028C28.7055 15.1028 27.6562 16.152 27.6562 17.4465V32.5394C27.6562 33.8339 28.7055 34.8831 30 34.8831C31.2945 34.8831 32.3438 33.8339 32.3438 32.5394V17.4465C32.3438 16.152 31.2945 15.1028 30 15.1028Z" fill="#55C8F9"/>
<path d="M30 44.0813C31.7474 44.0813 33.164 42.6647 33.164 40.9172C33.164 39.1698 31.7474 37.7532 30 37.7532C28.2525 37.7532 26.8359 39.1698 26.8359 40.9172C26.8359 42.6647 28.2525 44.0813 30 44.0813Z" fill="#55C8F9"/>
</svg>
