<svg width="20" height="30" viewBox="0 0 20 30" fill="none" xmlns="http://www.w3.org/2000/svg">
<path d="M9.69392 16.9347C9.86373 17.2136 10.139 17.2136 10.3089 16.9347L19.8764 1.21997C20.0433 0.93623 20.0385 0.484007 19.8658 0.209915C19.6972 -0.0574818 19.43 -0.0574818 19.2615 0.209915L10.0018 15.4189L0.742073 0.208508C0.569326 -0.0655842 0.294001 -0.0577507 0.127125 0.225986C-0.0356731 0.502825 -0.0356731 0.941721 0.127125 1.21849L9.69392 16.9347Z" fill="#55C8F9"/>
<path d="M0.434198 12.8574C0.549622 12.8571 0.660397 12.9321 0.742102 13.066L10.0018 28.2764L19.2615 13.066C19.4343 12.7919 19.7096 12.7998 19.8765 13.0835C20.0392 13.3604 20.0392 13.7992 19.8765 14.076L10.3089 29.7908C10.139 30.0697 9.86376 30.0697 9.69391 29.7908L0.126295 14.076C-0.043272 13.7967 -0.0428219 13.3444 0.127275 13.0659C0.208776 12.9324 0.319141 12.8575 0.434198 12.8574Z" fill="#55C8F9"/>
<path d="M0.434404 -2.67029e-05C0.549826 -0.000362396 0.660601 0.0746384 0.742306 0.208572L10.002 15.419L19.2617 0.208572C19.4345 -0.0655212 19.7098 -0.0576859 19.8767 0.226116C20.0395 0.502954 20.0395 0.941786 19.8767 1.21862L10.3091 16.9334C10.1393 17.2122 9.86397 17.2122 9.69412 16.9334L0.126501 1.21862C-0.043066 0.93924 -0.0426178 0.48695 0.12748 0.208437C0.208981 0.0749741 0.319347 4.00543e-05 0.434404 -2.67029e-05Z" fill="#55C8F9"/>
</svg>
