<svg width="20" height="231" viewBox="0 0 20 231" fill="none" xmlns="http://www.w3.org/2000/svg">
<path d="M9.69392 217.935C9.86373 218.214 10.139 218.214 10.3089 217.935L19.8764 202.22C20.0433 201.936 20.0385 201.484 19.8658 201.21C19.6972 200.943 19.43 200.943 19.2615 201.21L10.0018 216.419L0.742073 201.209C0.569326 200.934 0.294001 200.942 0.127125 201.226C-0.0356731 201.503 -0.0356731 201.942 0.127125 202.218L9.69392 217.935Z" fill="#55C8F9"/>
<path d="M0.434198 213.857C0.549622 213.857 0.660397 213.932 0.742102 214.066L10.0018 229.276L19.2615 214.066C19.4343 213.792 19.7096 213.8 19.8765 214.084C20.0392 214.36 20.0392 214.799 19.8765 215.076L10.3089 230.791C10.139 231.07 9.86376 231.07 9.69391 230.791L0.126295 215.076C-0.043272 214.797 -0.0428219 214.344 0.127275 214.066C0.208776 213.932 0.319141 213.857 0.434198 213.857Z" fill="#55C8F9"/>
<path d="M0.434404 201C0.549826 201 0.660601 201.075 0.742306 201.209L10.002 216.419L19.2617 201.209C19.4345 200.934 19.7098 200.942 19.8767 201.226C20.0395 201.503 20.0395 201.942 19.8767 202.219L10.3091 217.933C10.1393 218.212 9.86397 218.212 9.69412 217.933L0.126501 202.219C-0.043066 201.939 -0.0426178 201.487 0.12748 201.208C0.208981 201.075 0.319347 201 0.434404 201Z" fill="#55C8F9"/>
<path d="M5.77847 11C5.27447 11 4.84514 10.8227 4.49047 10.468C4.1358 10.1133 3.95847 9.684 3.95847 9.18V8.592H5.47047V8.97C5.47047 9.17533 5.50314 9.31533 5.56847 9.39C5.64314 9.45533 5.78314 9.488 5.98847 9.488H12.0085C12.2138 9.488 12.3491 9.45533 12.4145 9.39C12.4798 9.31533 12.5125 9.17533 12.5125 8.97V7.234C12.5125 7.01933 12.4798 6.87933 12.4145 6.814C12.3491 6.74867 12.2138 6.716 12.0085 6.716H5.77847C5.27447 6.716 4.84514 6.53867 4.49047 6.184C4.1358 5.82933 3.95847 5.4 3.95847 4.896V2.74C3.95847 2.236 4.1358 1.80667 4.49047 1.452C4.84514 1.09733 5.27447 0.92 5.77847 0.92H12.2185C12.7225 0.92 13.1518 1.09733 13.5065 1.452C13.8611 1.80667 14.0385 2.236 14.0385 2.74V3.328H12.5125V2.95C12.5125 2.74467 12.4798 2.60933 12.4145 2.544C12.3491 2.46933 12.2138 2.432 12.0085 2.432H5.98847C5.78314 2.432 5.64314 2.46933 5.56847 2.544C5.50314 2.60933 5.47047 2.74467 5.47047 2.95V4.686C5.47047 4.90067 5.50314 5.04067 5.56847 5.106C5.64314 5.162 5.78314 5.19 5.98847 5.19H12.2185C12.7225 5.19 13.1518 5.372 13.5065 5.736C13.8611 6.09067 14.0385 6.52 14.0385 7.024V9.18C14.0385 9.684 13.8611 10.1133 13.5065 10.468C13.1518 10.8227 12.7225 11 12.2185 11H5.77847ZM5.84814 29C5.34414 29 4.91481 28.8227 4.56014 28.468C4.20547 28.1133 4.02814 27.684 4.02814 27.18V20.74C4.02814 20.236 4.20547 19.8067 4.56014 19.452C4.91481 19.0973 5.34414 18.92 5.84814 18.92H14.0801V20.432H6.05814C5.85281 20.432 5.71281 20.4693 5.63814 20.544C5.57281 20.6093 5.54014 20.7447 5.54014 20.95V26.97C5.54014 27.1753 5.57281 27.3153 5.63814 27.39C5.71281 27.4553 5.85281 27.488 6.05814 27.488H14.0801V29H5.84814ZM3.99363 47V36.934H12.2396C12.7436 36.934 13.173 37.116 13.5276 37.48C13.8916 37.8347 14.0736 38.2593 14.0736 38.754V41.582C14.0736 42.0767 13.8916 42.506 13.5276 42.87C13.173 43.2247 12.7436 43.402 12.2396 43.402H11.2316L14.0316 46.72V47H12.2676L9.25763 43.402H5.50563V47H3.99363ZM6.02363 41.876H12.0296C12.2443 41.876 12.3843 41.8433 12.4496 41.778C12.515 41.7127 12.5476 41.5773 12.5476 41.372V38.964C12.5476 38.7587 12.515 38.6233 12.4496 38.558C12.3843 38.4833 12.2443 38.446 12.0296 38.446H6.02363C5.8183 38.446 5.6783 38.4833 5.60363 38.558C5.5383 38.6233 5.50563 38.7587 5.50563 38.964V41.372C5.50563 41.5773 5.5383 41.7127 5.60363 41.778C5.6783 41.8433 5.8183 41.876 6.02363 41.876ZM5.77913 65C5.27513 65 4.84579 64.8227 4.49113 64.468C4.13646 64.1133 3.95913 63.684 3.95913 63.18V56.74C3.95913 56.236 4.13646 55.8067 4.49113 55.452C4.84579 55.0973 5.27513 54.92 5.77913 54.92H12.2191C12.7138 54.92 13.1385 55.0973 13.4931 55.452C13.8571 55.8067 14.0391 56.236 14.0391 56.74V63.18C14.0391 63.684 13.8571 64.1133 13.4931 64.468C13.1385 64.8227 12.7138 65 12.2191 65H5.77913ZM5.98913 63.488H11.9951C12.2005 63.488 12.3358 63.4553 12.4011 63.39C12.4758 63.3153 12.5131 63.1753 12.5131 62.97V56.95C12.5131 56.7447 12.4758 56.6093 12.4011 56.544C12.3358 56.4693 12.2005 56.432 11.9951 56.432H5.98913C5.78379 56.432 5.64379 56.4693 5.56913 56.544C5.50379 56.6093 5.47113 56.7447 5.47113 56.95V62.97C5.47113 63.1753 5.50379 63.3153 5.56913 63.39C5.64379 63.4553 5.78379 63.488 5.98913 63.488ZM4.34292 83V72.906H5.85492V81.488H14.4229V83H4.34292ZM4.34292 101V90.906H5.85492V99.488H14.4229V101H4.34292ZM3.97411 137V126.92H12.2201C12.7241 126.92 13.1534 127.097 13.5081 127.452C13.8721 127.807 14.0541 128.236 14.0541 128.74V135.18C14.0541 135.684 13.8721 136.113 13.5081 136.468C13.1534 136.823 12.7241 137 12.2201 137H3.97411ZM6.00411 135.488H12.0101C12.2154 135.488 12.3508 135.455 12.4161 135.39C12.4908 135.315 12.5281 135.175 12.5281 134.97V128.95C12.5281 128.745 12.4908 128.609 12.4161 128.544C12.3508 128.469 12.2154 128.432 12.0101 128.432H6.00411C5.79878 128.432 5.65878 128.469 5.58411 128.544C5.51878 128.609 5.48611 128.745 5.48611 128.95V134.97C5.48611 135.175 5.51878 135.315 5.58411 135.39C5.65878 135.455 5.79878 135.488 6.00411 135.488ZM5.77913 155C5.27513 155 4.84579 154.823 4.49113 154.468C4.13646 154.113 3.95913 153.684 3.95913 153.18V146.74C3.95913 146.236 4.13646 145.807 4.49113 145.452C4.84579 145.097 5.27513 144.92 5.77913 144.92H12.2191C12.7138 144.92 13.1385 145.097 13.4931 145.452C13.8571 145.807 14.0391 146.236 14.0391 146.74V153.18C14.0391 153.684 13.8571 154.113 13.4931 154.468C13.1385 154.823 12.7138 155 12.2191 155H5.77913ZM5.98913 153.488H11.9951C12.2005 153.488 12.3358 153.455 12.4011 153.39C12.4758 153.315 12.5131 153.175 12.5131 152.97V146.95C12.5131 146.745 12.4758 146.609 12.4011 146.544C12.3358 146.469 12.2005 146.432 11.9951 146.432H5.98913C5.78379 146.432 5.64379 146.469 5.56913 146.544C5.50379 146.609 5.47113 146.745 5.47113 146.95V152.97C5.47113 153.175 5.50379 153.315 5.56913 153.39C5.64379 153.455 5.78379 153.488 5.98913 153.488ZM4.90702 173L1.23902 162.92H2.84902L5.52302 170.256L8.19702 162.92H9.79302L12.481 170.256L15.141 162.92H16.765L13.097 173H11.851L8.99502 165.16L6.13902 173H4.90702ZM3.95978 191V180.92H5.76578L12.5138 188.956V180.92H14.0398V191H12.2338L5.47178 182.95V191H3.95978Z" fill="#55C8F9"/>
</svg>
