<svg width="60" height="60" viewBox="0 0 60 60" fill="none" xmlns="http://www.w3.org/2000/svg">
<path d="M36.9776 46.7093C36.7123 47.0582 36.396 47.3327 36.0477 47.5165C35.6995 47.7002 35.3266 47.7894 34.9514 47.7785C34.5763 47.7677 34.2067 47.6571 33.8649 47.4534C33.5232 47.2497 33.2164 46.9571 32.963 46.5933C32.7096 46.2295 32.5149 45.802 32.3907 45.3366C32.2664 44.8712 32.2151 44.3776 32.24 43.8854C32.2648 43.3933 32.3652 42.9128 32.5352 42.4731C32.7051 42.0333 32.941 41.6434 33.2287 41.3268L36.5565 37.5423L36.3041 40.6179L41.4999 36.4054L38.399 42.3892L40.0807 42.9643L36.9776 46.7093Z" fill="#CDEBF8"/>
<path d="M21.7432 25.2222C21.4779 25.571 21.1616 25.8456 20.8133 26.0293C20.4651 26.2131 20.0922 26.3022 19.717 26.2914C19.3419 26.2805 18.9723 26.1699 18.6306 25.9662C18.2888 25.7625 17.982 25.47 17.7286 25.1062C17.4753 24.7424 17.2806 24.3149 17.1563 23.8495C17.032 23.3841 16.9808 22.8904 17.0056 22.3983C17.0304 21.9061 17.1308 21.4257 17.3008 20.986C17.4707 20.5462 17.7067 20.1563 17.9944 19.8396L21.3221 16.0553L21.0697 19.1308L25.9998 15.5756L23.1646 20.9022L24.8464 21.4772L21.7432 25.2222Z" fill="#CDEBF8"/>
<path d="M25.775 45.8074C24.7142 47.1234 23.299 47.8316 21.8409 47.7761C20.3829 47.7207 19.0012 46.9061 18.0001 45.5117C16.9989 44.1173 16.4601 42.2572 16.5023 40.3406C16.5445 38.424 17.1642 36.608 18.2251 35.292L24.3035 27.9677L23.8368 31.0348L29.042 25.7624L28.683 29.4305L38 20.8333L29.5446 35.3998L32.9881 35.7849L25.775 45.8074Z" fill="#CDEBF8"/>
<path d="M22 45.1501C23.933 45.1501 25.5 43.0904 25.5 40.5497C25.5 38.0089 23.933 35.9492 22 35.9492C20.067 35.9492 18.5 38.0089 18.5 40.5497C18.5 43.0904 20.067 45.1501 22 45.1501Z" fill="#577683"/>
<path d="M25.3588 41.8469C25.1904 42.6005 24.8777 43.2847 24.4507 43.834C24.2781 43.8227 24.1107 43.7528 23.9648 43.6312C23.8189 43.5096 23.6995 43.3403 23.6182 43.1399C23.5369 42.9396 23.4964 42.7149 23.5008 42.4879C23.5052 42.2609 23.5543 42.0392 23.6432 41.8445C23.7322 41.6499 23.858 41.4888 24.0085 41.3771C24.1589 41.2653 24.3288 41.2067 24.5015 41.207C24.6743 41.2072 24.8441 41.2663 24.9943 41.3784C25.1446 41.4906 25.2702 41.652 25.3588 41.8469Z" fill="#577683"/>
<path d="M21 42.5213C21.5523 42.5213 22 41.9328 22 41.2069C22 40.481 21.5523 39.8925 21 39.8925C20.4477 39.8925 20 40.481 20 41.2069C20 41.9328 20.4477 42.5213 21 42.5213Z" fill="#577683"/>
<path d="M25.3588 41.8469C25.1904 42.6005 24.8777 43.2847 24.4507 43.834C24.2781 43.8227 24.1107 43.7528 23.9648 43.6312C23.8189 43.5096 23.6995 43.3403 23.6182 43.1399C23.5369 42.9396 23.4964 42.7149 23.5008 42.4879C23.5052 42.2609 23.5543 42.0392 23.6432 41.8445C23.7322 41.6499 23.858 41.4888 24.0085 41.3771C24.1589 41.2653 24.3288 41.2067 24.5015 41.207C24.6743 41.2072 24.8441 41.2663 24.9943 41.3784C25.1446 41.4906 25.2702 41.652 25.3588 41.8469Z" fill="#577683"/>
<path d="M21.5 40.5497C21.4011 40.5497 21.3045 40.5111 21.2222 40.4389C21.14 40.3667 21.0759 40.2641 21.0381 40.144C21.0002 40.0239 20.9903 39.8917 21.0096 39.7642C21.0289 39.6367 21.0765 39.5196 21.1465 39.4277L22.1465 38.1133C22.2402 37.99 22.3674 37.9208 22.5 37.9208C22.6326 37.9208 22.7598 37.99 22.8536 38.1133C22.9474 38.2365 23 38.4037 23 38.578C23 38.7523 22.9474 38.9195 22.8536 39.0428L21.8536 40.3572C21.8072 40.4183 21.7521 40.4668 21.6914 40.4998C21.6307 40.5329 21.5657 40.5498 21.5 40.5497Z" fill="#9EDAF3"/>
<path d="M25 41.8641C24.9011 41.8641 24.8045 41.8256 24.7222 41.7534C24.64 41.6812 24.5759 41.5785 24.5381 41.4584C24.5002 41.3383 24.4903 41.2062 24.5096 41.0787C24.5289 40.9512 24.5765 40.8341 24.6465 40.7422L27.6465 36.7989C27.6929 36.7379 27.748 36.6894 27.8087 36.6564C27.8693 36.6234 27.9344 36.6064 28 36.6064C28.0657 36.6064 28.1307 36.6234 28.1914 36.6564C28.252 36.6894 28.3071 36.7379 28.3536 36.7989C28.4 36.8599 28.4368 36.9324 28.462 37.0121C28.4871 37.0918 28.5 37.1773 28.5 37.2636C28.5 37.3499 28.4871 37.4354 28.462 37.5151C28.4368 37.5949 28.4 37.6673 28.3536 37.7284L25.3536 41.6717C25.3072 41.7328 25.2521 41.7812 25.1914 41.8143C25.1307 41.8473 25.0657 41.8643 25 41.8641Z" fill="#9EDAF3"/>
<path d="M22 37.2635C21.9011 37.2636 21.8045 37.225 21.7222 37.1528C21.64 37.0806 21.5759 36.9779 21.5381 36.8579C21.5002 36.7378 21.4903 36.6056 21.5096 36.4781C21.5289 36.3506 21.5765 36.2335 21.6465 36.1416L24.6465 32.1984C24.7402 32.0752 24.8674 32.0059 25 32.0059C25.1326 32.0059 25.2598 32.0752 25.3536 32.1984C25.4474 32.3217 25.5 32.4888 25.5 32.6631C25.5 32.8374 25.4474 33.0046 25.3536 33.1279L22.3536 37.0711C22.3072 37.1322 22.2521 37.1807 22.1914 37.2137C22.1307 37.2467 22.0657 37.2637 22 37.2635Z" fill="#9EDAF3"/>
<path d="M33.1659 34.1954C33.0678 34.1953 32.9719 34.1574 32.8901 34.0862C32.8083 34.0151 32.7442 33.9138 32.7058 33.7952C32.6675 33.6765 32.6565 33.5456 32.6743 33.4188C32.6921 33.292 32.7379 33.1749 32.806 33.082L35.9986 28.728C36.0438 28.6638 36.0983 28.6122 36.1588 28.576C36.2194 28.5399 36.2848 28.52 36.3513 28.5175C36.4178 28.515 36.484 28.5299 36.546 28.5615C36.608 28.593 36.6646 28.6405 36.7125 28.7012C36.7604 28.7618 36.7986 28.8344 36.8249 28.9147C36.8511 28.995 36.865 29.0814 36.8655 29.1688C36.8661 29.2563 36.8534 29.3429 36.8282 29.4238C36.8029 29.5047 36.7657 29.5781 36.7186 29.6399L33.526 33.9939C33.4794 34.0577 33.4235 34.1084 33.3616 34.143C33.2997 34.1777 33.2332 34.1955 33.1659 34.1954Z" fill="#55C8F9"/>
<path d="M30.7881 24.4612C30.6884 24.4612 30.591 24.422 30.5083 24.3487C30.4257 24.2754 30.3616 24.1713 30.3244 24.0497C30.2871 23.9282 30.2783 23.7948 30.2991 23.6666C30.32 23.5385 30.3695 23.4214 30.4413 23.3305L32.2682 21.0182C32.3637 20.8973 32.4918 20.8312 32.6244 20.8345C32.757 20.8377 32.8832 20.9101 32.9752 21.0357C33.0672 21.1612 33.1175 21.3297 33.115 21.504C33.1125 21.6782 33.0574 21.8441 32.9619 21.965L31.135 24.2774C31.0419 24.3955 30.9175 24.4614 30.7881 24.4612Z" fill="#577683"/>
<path d="M26.1655 35.9492C26.0667 35.9492 25.97 35.9107 25.8878 35.8385C25.8055 35.7662 25.7414 35.6636 25.7036 35.5435C25.6657 35.4234 25.6558 35.2913 25.6751 35.1638C25.6944 35.0363 25.7421 34.9192 25.812 34.8273L27.6463 32.4161C27.6927 32.3551 27.7478 32.3067 27.8085 32.2737C27.8692 32.2406 27.9342 32.2236 27.9999 32.2236C28.0655 32.2236 28.1305 32.2406 28.1912 32.2737C28.2519 32.3067 28.307 32.3551 28.3534 32.4161C28.3998 32.4772 28.4367 32.5496 28.4618 32.6294C28.4869 32.7091 28.4999 32.7946 28.4999 32.8809C28.4999 32.9672 28.4869 33.0527 28.4618 33.1324C28.4367 33.2121 28.3998 33.2846 28.3534 33.3456L26.5192 35.7567C26.4728 35.8179 26.4177 35.8663 26.357 35.8994C26.2963 35.9324 26.2312 35.9493 26.1655 35.9492Z" fill="#9EDAF3"/>
<path d="M19.7786 24.4462C20.5376 24.4462 21.1529 23.6374 21.1529 22.6397C21.1529 21.6421 20.5376 20.8333 19.7786 20.8333C19.0196 20.8333 18.4043 21.6421 18.4043 22.6397C18.4043 23.6374 19.0196 24.4462 19.7786 24.4462Z" fill="#577683"/>
<path d="M35.0095 45.7324C35.6841 45.7324 36.231 45.0136 36.231 44.1269C36.231 43.2402 35.6841 42.5214 35.0095 42.5214C34.3349 42.5214 33.7881 43.2402 33.7881 44.1269C33.7881 45.0136 34.3349 45.7324 35.0095 45.7324Z" fill="#577683"/>
<path d="M40.4002 33.9775C40.2974 33.9776 40.1971 33.9361 40.1129 33.8585C40.0288 33.781 39.9648 33.6712 39.9298 33.5442C39.8948 33.4172 39.8904 33.2791 39.9173 33.1487C39.9441 33.0182 40.0009 32.9019 40.0798 32.8154L40.6798 32.1582C40.7303 32.1029 40.7885 32.0612 40.8512 32.0356C40.9139 32.0099 40.9798 32.0007 41.0452 32.0085C41.1106 32.0163 41.1742 32.041 41.2323 32.0811C41.2905 32.1212 41.342 32.176 41.3841 32.2423C41.4261 32.3086 41.4578 32.3851 41.4773 32.4675C41.4969 32.5499 41.5039 32.6366 41.4979 32.7226C41.492 32.8085 41.4732 32.8921 41.4427 32.9685C41.4122 33.045 41.3705 33.1127 41.3201 33.168L40.7201 33.8252C40.6304 33.9238 40.5171 33.9777 40.4002 33.9775Z" fill="#55C8F9"/>
<path d="M43.9998 37.9208C43.897 37.9209 43.7967 37.8793 43.7126 37.8018C43.6284 37.7242 43.5644 37.6145 43.5294 37.4875C43.4944 37.3605 43.49 37.2223 43.5169 37.0919C43.5437 36.9615 43.6005 36.8451 43.6794 36.7587L44.2794 36.1014C44.3813 35.9899 44.5127 35.936 44.6448 35.9518C44.7769 35.9676 44.8988 36.0517 44.9837 36.1856C45.0686 36.3195 45.1095 36.4922 45.0975 36.6658C45.0855 36.8394 45.0216 36.9997 44.9197 37.1113L44.3197 37.7685C44.23 37.867 44.1167 37.9209 43.9998 37.9208Z" fill="#CDEBF8"/>
<path d="M42.0003 40.5497C41.8975 40.5498 41.7972 40.5083 41.713 40.4307C41.6289 40.3532 41.5649 40.2434 41.5299 40.1164C41.4949 39.9894 41.4905 39.8513 41.5174 39.7209C41.5442 39.5905 41.601 39.4741 41.6799 39.3876L42.2799 38.7304C42.3818 38.6188 42.5132 38.5649 42.6453 38.5807C42.7774 38.5965 42.8993 38.6806 42.9842 38.8145C43.0691 38.9484 43.11 39.1212 43.098 39.2948C43.086 39.4684 43.022 39.6286 42.9202 39.7402L42.3202 40.3974C42.2305 40.496 42.1172 40.5499 42.0003 40.5497Z" fill="#55C8F9"/>
<path d="M38.0002 36.6064C37.8975 36.6064 37.7972 36.5649 37.713 36.4873C37.6288 36.4098 37.5649 36.3001 37.5299 36.173C37.4949 36.046 37.4905 35.9079 37.5174 35.7775C37.5442 35.6471 37.601 35.5308 37.6799 35.4443L38.6799 34.349C38.7303 34.2926 38.7886 34.2499 38.8516 34.2233C38.9145 34.1968 38.9809 34.1869 39.0468 34.1943C39.1127 34.2017 39.1768 34.2261 39.2355 34.2663C39.2941 34.3065 39.3461 34.3616 39.3885 34.4284C39.4308 34.4952 39.4626 34.5723 39.4821 34.6554C39.5016 34.7385 39.5084 34.8258 39.502 34.9123C39.4957 34.9988 39.4763 35.0828 39.4451 35.1595C39.4138 35.2361 39.3713 35.3038 39.3201 35.3587L38.3201 36.4541C38.2304 36.5526 38.1171 36.6065 38.0002 36.6064Z" fill="#CDEBF8"/>
<path d="M45 32.6631C44.9011 32.6631 44.8045 32.6245 44.7222 32.5523C44.64 32.4801 44.5759 32.3775 44.5381 32.2574C44.5002 32.1373 44.4903 32.0052 44.5096 31.8777C44.5289 31.7502 44.5765 31.6331 44.6465 31.5412L45.1465 30.884C45.2402 30.7607 45.3674 30.6915 45.5 30.6915C45.6326 30.6915 45.7598 30.7607 45.8536 30.884C45.9474 31.0072 46 31.1744 46 31.3487C46 31.523 45.9474 31.6902 45.8536 31.8134L45.3536 32.4706C45.3072 32.5317 45.2521 32.5802 45.1914 32.6132C45.1307 32.6463 45.0657 32.6632 45 32.6631Z" fill="#CDEBF8"/>
<path d="M40.5 24.7765C40.4011 24.7766 40.3045 24.738 40.2222 24.6658C40.14 24.5936 40.0759 24.4909 40.0381 24.3708C40.0002 24.2507 39.9903 24.1186 40.0096 23.9911C40.0289 23.8636 40.0765 23.7465 40.1465 23.6546L40.6465 22.9974C40.7402 22.8741 40.8674 22.8049 41 22.8049C41.1326 22.8049 41.2598 22.8741 41.3536 22.9974C41.4474 23.1206 41.5 23.2878 41.5 23.4621C41.5 23.6364 41.4474 23.8036 41.3536 23.9268L40.8536 24.5841C40.8072 24.6452 40.7521 24.6937 40.6914 24.7267C40.6307 24.7597 40.5657 24.7767 40.5 24.7765Z" fill="#55C8F9"/>
<path d="M35 19.5189C34.9011 19.5189 34.8045 19.4803 34.7222 19.4081C34.64 19.3359 34.5759 19.2333 34.5381 19.1132C34.5002 18.9931 34.4903 18.8609 34.5096 18.7334C34.5289 18.606 34.5765 18.4888 34.6465 18.3969L35.1465 17.7397C35.1929 17.6787 35.248 17.6303 35.3087 17.5973C35.3693 17.5642 35.4344 17.5472 35.5 17.5472C35.5657 17.5472 35.6307 17.5642 35.6914 17.5973C35.752 17.6303 35.8072 17.6787 35.8536 17.7397C35.9 17.8008 35.9368 17.8732 35.962 17.953C35.9871 18.0327 36 18.1182 36 18.2045C36 18.2908 35.9871 18.3762 35.962 18.456C35.9368 18.5357 35.9 18.6082 35.8536 18.6692L35.3536 19.3264C35.3072 19.3875 35.2521 19.436 35.1914 19.469C35.1307 19.502 35.0657 19.519 35 19.5189Z" fill="#55C8F9"/>
<path d="M43 35.2919C42.9011 35.2919 42.8045 35.2534 42.7222 35.1812C42.64 35.109 42.5759 35.0063 42.5381 34.8862C42.5002 34.7661 42.4903 34.634 42.5096 34.5065C42.5289 34.379 42.5765 34.2619 42.6465 34.17L43.6465 32.8556C43.7402 32.7323 43.8674 32.6631 44 32.6631C44.1326 32.6631 44.2598 32.7323 44.3536 32.8556C44.4474 32.9788 44.5 33.146 44.5 33.3203C44.5 33.4946 44.4474 33.6618 44.3536 33.785L43.3536 35.0995C43.3072 35.1606 43.2521 35.209 43.1914 35.2421C43.1307 35.2751 43.0657 35.2921 43 35.2919Z" fill="#577683"/>
<path d="M38 28.0626C37.9011 28.0626 37.8045 28.0241 37.7222 27.9519C37.64 27.8797 37.5759 27.777 37.5381 27.6569C37.5002 27.5368 37.4903 27.4047 37.5096 27.2772C37.5289 27.1497 37.5765 27.0326 37.6465 26.9407L38.6465 25.6262C38.7402 25.503 38.8674 25.4337 39 25.4337C39.1326 25.4337 39.2598 25.503 39.3536 25.6262C39.4474 25.7495 39.5 25.9166 39.5 26.091C39.5 26.2653 39.4474 26.4324 39.3536 26.5557L38.3536 27.8701C38.3072 27.9313 38.2521 27.9797 38.1914 28.0128C38.1307 28.0458 38.0657 28.0627 38 28.0626Z" fill="#CDEBF8"/>
<path d="M29 16.89C28.9011 16.89 28.8045 16.8515 28.7222 16.7793C28.64 16.707 28.5759 16.6044 28.5381 16.4843C28.5002 16.3642 28.4903 16.2321 28.5096 16.1046C28.5289 15.9771 28.5765 15.86 28.6465 15.7681L29.1465 15.1109C29.2402 14.9876 29.3674 14.9184 29.5 14.9184C29.6326 14.9184 29.7598 14.9876 29.8536 15.1109C29.9474 15.2341 30 15.4013 30 15.5756C30 15.7499 29.9474 15.9171 29.8536 16.0403L29.3536 16.6975C29.3072 16.7587 29.2521 16.8071 29.1914 16.8402C29.1307 16.8732 29.0657 16.8901 29 16.89Z" fill="#577683"/>
<path d="M26.5 20.176C26.4011 20.176 26.3045 20.1375 26.2222 20.0653C26.14 19.9931 26.0759 19.8904 26.0381 19.7703C26.0002 19.6502 25.9903 19.5181 26.0096 19.3906C26.0289 19.2631 26.0765 19.146 26.1465 19.0541L27.1465 17.7397C27.2402 17.6165 27.3674 17.5472 27.5 17.5472C27.6326 17.5472 27.7598 17.6165 27.8536 17.7397C27.9474 17.863 28 18.0301 28 18.2044C28 18.3788 27.9474 18.5459 27.8536 18.6692L26.8536 19.9835C26.8072 20.0447 26.7521 20.0931 26.6914 20.1262C26.6307 20.1592 26.5657 20.1761 26.5 20.176Z" fill="#55C8F9"/>
<path d="M29.8337 11.6323C29.7315 11.6323 29.6318 11.5912 29.5479 11.5145C29.464 11.4378 29.4001 11.3292 29.3646 11.2032C29.3291 11.0773 29.3239 10.94 29.3495 10.81C29.3752 10.68 29.4305 10.5635 29.5081 10.4761L30.6748 9.16164C30.7246 9.10466 30.7824 9.0612 30.845 9.03376C30.9076 9.00631 30.9737 8.99543 31.0396 9.00174C31.1054 9.00805 31.1696 9.03143 31.2285 9.07052C31.2874 9.10961 31.3399 9.16365 31.3828 9.22952C31.4258 9.29538 31.4584 9.37177 31.4788 9.45428C31.4991 9.53679 31.5069 9.62379 31.5016 9.71025C31.4962 9.79672 31.4779 9.88094 31.4477 9.95807C31.4175 10.0352 31.376 10.1037 31.3255 10.1596L30.1589 11.474C30.0684 11.5763 29.953 11.6324 29.8337 11.6323Z" fill="#55C8F9"/>
<path d="M27.5002 14.2611C27.398 14.2612 27.2983 14.2201 27.2144 14.1434C27.1306 14.0667 27.0666 13.958 27.0311 13.8321C26.9956 13.7061 26.9904 13.5689 27.016 13.4389C27.0417 13.3089 27.097 13.1923 27.1746 13.1049L28.1746 11.9782C28.2753 11.8648 28.4061 11.8085 28.5384 11.8219C28.6706 11.8352 28.7934 11.9171 28.8797 12.0494C28.9661 12.1818 29.0089 12.3538 28.9987 12.5276C28.9886 12.7014 28.9263 12.8628 28.8256 12.9763L27.8256 14.1029C27.7351 14.2052 27.6196 14.2613 27.5002 14.2611Z" fill="#CDEBF8"/>
<path d="M24.7858 12.2888C24.6841 12.2889 24.5847 12.2481 24.5011 12.172C24.4174 12.0959 24.3534 11.988 24.3176 11.8628C24.2818 11.7377 24.2759 11.6011 24.3007 11.4714C24.3255 11.3417 24.3798 11.225 24.4564 11.137L26.1707 9.16535C26.2705 9.05057 26.4009 8.9926 26.5332 9.00421C26.6655 9.01581 26.7889 9.09602 26.8762 9.22721C26.9636 9.35839 27.0077 9.5298 26.9988 9.70372C26.99 9.87764 26.929 10.0398 26.8292 10.1546L25.1149 12.1262C25.0238 12.2312 24.9069 12.289 24.7858 12.2888Z" fill="#55C8F9"/>
<path d="M22.5002 14.9184C22.3985 14.9185 22.2991 14.8777 22.2155 14.8016C22.1318 14.7255 22.0678 14.6176 22.032 14.4924C21.9962 14.3673 21.9903 14.2307 22.0151 14.101C22.0399 13.9713 22.0942 13.8546 22.1708 13.7665L23.3137 12.4521C23.4136 12.3381 23.5438 12.2808 23.6757 12.2927C23.8077 12.3047 23.9307 12.3848 24.0177 12.5157C24.1048 12.6465 24.1489 12.8174 24.1404 12.9909C24.1318 13.1644 24.0713 13.3264 23.9721 13.4414L22.8293 14.7558C22.7383 14.8608 22.6213 14.9186 22.5002 14.9184Z" fill="#577683"/>
<path d="M42.2779 16.2328C42.1768 16.2328 42.078 16.1925 41.9947 16.1173C41.9113 16.042 41.8473 15.9352 41.811 15.8111C41.7748 15.687 41.768 15.5514 41.7917 15.4221C41.8153 15.2928 41.8682 15.176 41.9433 15.0871L44.1655 12.4582C44.2141 12.3986 44.2712 12.3522 44.3335 12.322C44.3958 12.2917 44.4621 12.278 44.5285 12.2818C44.5949 12.2856 44.6601 12.3067 44.7202 12.344C44.7803 12.3813 44.8341 12.4339 44.8786 12.4988C44.923 12.5637 44.9572 12.6397 44.979 12.7222C45.0009 12.8046 45.01 12.892 45.0059 12.9792C45.0018 13.0664 44.9845 13.1516 44.955 13.2299C44.9255 13.3082 44.8845 13.378 44.8343 13.4352L42.612 16.064C42.5204 16.1728 42.4014 16.2329 42.2779 16.2328Z" fill="#CDEBF8"/>
<path d="M39.5002 19.5189C39.399 19.5189 39.3003 19.4786 39.2169 19.4034C39.1335 19.3281 39.0695 19.2213 39.0332 19.0972C38.997 18.9731 38.9902 18.8375 39.0138 18.7082C39.0374 18.5789 39.0903 18.4621 39.1655 18.3732L40.2766 17.0588C40.3252 16.9991 40.3823 16.9528 40.4446 16.9225C40.5069 16.8923 40.5732 16.8786 40.6396 16.8824C40.706 16.8862 40.7712 16.9073 40.8313 16.9446C40.8914 16.9818 40.9452 17.0345 40.9897 17.0994C41.0341 17.1643 41.0683 17.2403 41.0901 17.3227C41.112 17.4052 41.1211 17.4926 41.117 17.5798C41.1129 17.6669 41.0956 17.7522 41.0661 17.8305C41.0366 17.9087 40.9956 17.9785 40.9454 18.0357L39.8343 19.3501C39.7427 19.4588 39.6236 19.519 39.5002 19.5189Z" fill="#577683"/>
<path d="M22.8537 38.1133C22.8073 38.0523 22.7522 38.0038 22.6915 37.9708C22.6309 37.9378 22.5658 37.9208 22.5002 37.9208C22.4345 37.9208 22.3695 37.9378 22.3088 37.9708C22.2482 38.0038 22.1931 38.0523 22.1466 38.1133L21.2686 39.2674C20.9216 39.1841 20.5633 39.264 20.2566 39.4931C19.95 39.7222 19.7144 40.086 19.5914 40.5205C19.4683 40.9551 19.4656 41.4327 19.5837 41.8696C19.7017 42.3065 19.9331 42.6749 20.2371 42.91C20.5411 43.1452 20.8984 43.2322 21.2463 43.1557C21.5942 43.0792 21.9105 42.8442 22.1398 42.4918C22.3691 42.1394 22.4966 41.6922 22.5001 41.2285C22.5036 40.7649 22.3828 40.3144 22.1589 39.9561L22.8537 39.0428C22.9002 38.9817 22.937 38.9093 22.9621 38.8295C22.9873 38.7498 23.0002 38.6643 23.0002 38.578C23.0002 38.4917 22.9873 38.4062 22.9621 38.3265C22.937 38.2468 22.9002 38.1743 22.8537 38.1133ZM21.0002 41.8641C20.9013 41.8641 20.8046 41.8256 20.7224 41.7534C20.6402 41.6812 20.5761 41.5785 20.5382 41.4584C20.5004 41.3383 20.4905 41.2062 20.5098 41.0787C20.5291 40.9512 20.5767 40.8341 20.6466 40.7422C20.7166 40.6503 20.8057 40.5877 20.9026 40.5623C20.9996 40.537 21.1002 40.55 21.1915 40.5997C21.2829 40.6495 21.361 40.7337 21.4159 40.8418C21.4709 40.9499 21.5002 41.0769 21.5002 41.2069C21.5 41.3812 21.4473 41.5482 21.3536 41.6714C21.2598 41.7946 21.1327 41.8639 21.0002 41.8641Z" fill="#55C8F9"/>
<path d="M27.6465 36.7989L25.8556 39.1531C25.6882 38.3616 25.3825 37.6322 24.9629 37.0233C24.5433 36.4143 24.0213 35.9424 23.4386 35.6453L25.3536 33.1281C25.4474 33.0048 25.5001 32.8376 25.5001 32.6633C25.5001 32.489 25.4474 32.3219 25.3536 32.1986C25.2599 32.0753 25.1327 32.0061 25.0001 32.0061C24.8675 32.0061 24.7403 32.0753 24.6465 32.1986L22.2819 35.3066C22.1887 35.2979 22.095 35.292 22.0001 35.292C21.218 35.292 20.4531 35.5933 19.8 36.1587C19.1468 36.7241 18.6341 37.5288 18.3252 38.4731C18.0163 39.4175 17.9248 40.4602 18.0621 41.4722C18.1993 42.4842 18.5592 43.4212 19.0973 44.1672C19.6353 44.9131 20.328 45.4354 21.0895 45.6694C21.851 45.9034 22.648 45.8388 23.382 45.4837C24.1159 45.1285 24.7545 44.4984 25.2188 43.6712C25.6831 42.844 25.9527 41.856 25.9943 40.8295L28.3536 37.7284C28.4001 37.6674 28.4369 37.5949 28.462 37.5152C28.4871 37.4354 28.5001 37.35 28.5001 37.2637C28.5001 37.1774 28.4871 37.0919 28.462 37.0121C28.4369 36.9324 28.4001 36.86 28.3536 36.7989C28.3072 36.7379 28.2521 36.6895 28.1914 36.6565C28.1307 36.6234 28.0657 36.6064 28.0001 36.6064C27.9344 36.6064 27.8694 36.6234 27.8087 36.6565C27.7481 36.6895 27.6929 36.7379 27.6465 36.7989ZM24.2784 43.1107C24.2163 43.0706 24.1612 43.0139 24.1165 42.9443C24.0719 42.8747 24.0388 42.7937 24.0192 42.7063C23.9997 42.619 23.9941 42.5273 24.003 42.437C24.0118 42.3467 24.0348 42.2599 24.0705 42.1819C24.1062 42.1039 24.1539 42.0365 24.2105 41.984C24.267 41.9315 24.3313 41.895 24.3991 41.8768C24.467 41.8587 24.537 41.8592 24.6047 41.8785C24.6723 41.8977 24.7362 41.9353 24.7923 41.9887C24.6698 42.3977 24.4961 42.7769 24.2784 43.1107ZM19.0001 40.5497C19.0011 39.6178 19.2527 38.7164 19.7106 38.0049C20.1685 37.2934 20.8031 36.8176 21.5021 36.6618C21.5101 36.7866 21.5451 36.9057 21.603 37.0052C21.6608 37.1047 21.7391 37.1804 21.8285 37.2234C21.918 37.2664 22.015 37.275 22.108 37.248C22.201 37.221 22.2862 37.1597 22.3536 37.0712L22.6382 36.6971C23.2733 36.8802 23.8461 37.3291 24.2706 37.9764C24.6951 38.6237 24.9485 39.4345 24.9927 40.2872L24.7688 40.5818C24.4489 40.5047 24.1186 40.5665 23.8278 40.7579C23.537 40.9493 23.3015 41.2599 23.1568 41.6427C23.0121 42.0256 22.9661 42.4599 23.0258 42.8802C23.0855 43.3004 23.2476 43.6837 23.4876 43.9722C23.0315 44.3154 22.5149 44.4951 21.9893 44.4932C21.4638 44.4912 20.9479 44.3077 20.4934 43.961C20.0388 43.6144 19.6616 43.1167 19.3995 42.518C19.1374 41.9193 18.9997 41.2405 19.0001 40.5497Z" fill="#55C8F9"/>
<path d="M33.4554 35.5508C33.4219 35.4352 33.3642 35.3344 33.289 35.26C33.2138 35.1855 33.1242 35.1405 33.0304 35.13L30.4946 34.8465L38.3975 21.2319C38.4699 21.1071 38.506 20.9525 38.4992 20.7958C38.4924 20.6392 38.4432 20.4909 38.3605 20.3778C38.2778 20.2647 38.167 20.1942 38.0482 20.1791C37.9294 20.164 37.8104 20.2052 37.7127 20.2953L29.3236 28.0364L29.5379 25.8462C29.5505 25.7173 29.5338 25.5864 29.4898 25.4701C29.4459 25.3537 29.3766 25.2571 29.2909 25.1924C29.2052 25.1277 29.1068 25.0979 29.0082 25.1066C28.9096 25.1154 28.8151 25.1624 28.7368 25.2417L24.589 29.4432L24.7938 28.0966C24.8145 27.9607 24.802 27.8196 24.758 27.6936C24.714 27.5676 24.6409 27.4631 24.549 27.3951C24.4571 27.327 24.3512 27.2989 24.2464 27.3148C24.1417 27.3306 24.0434 27.3896 23.9657 27.4832L17.8875 34.8073L17.8822 34.8138C17.2852 35.5484 16.8099 36.4369 16.4861 37.4238C16.1622 38.4108 15.9968 39.4749 16 40.5497C16 42.0901 16.3432 43.5968 16.9873 44.8838C17.6313 46.1707 18.5479 47.1816 19.624 47.7916C20.7001 48.4016 21.8886 48.584 23.0427 48.3163C24.1968 48.0487 25.2659 47.3426 26.1182 46.2853C26.125 46.2771 26.1317 46.2681 26.1382 46.2591L33.3514 36.2366C33.4161 36.1467 33.4601 36.0347 33.4785 35.9134C33.4969 35.7921 33.4889 35.6664 33.4554 35.5508ZM25.4217 45.342C24.4553 46.5297 23.1702 47.1656 21.8479 47.1104C20.5255 47.0552 19.2737 46.3133 18.3667 45.0473C17.4597 43.7813 16.9713 42.0944 17.0086 40.3561C17.046 38.6178 17.6059 36.9698 18.5659 35.7731L23.513 29.8118L23.3466 30.9059C23.3266 31.0371 23.3376 31.1732 23.3781 31.296C23.4186 31.4188 23.4866 31.5224 23.5731 31.593C23.6595 31.6636 23.7603 31.6978 23.862 31.6911C23.9637 31.6844 24.0614 31.637 24.142 31.5554L28.392 27.2502L28.1868 29.3465C28.1745 29.4729 28.1903 29.6014 28.2325 29.7161C28.2746 29.8309 28.3412 29.9271 28.4242 29.993C28.5072 30.0589 28.603 30.0916 28.6999 30.0873C28.7968 30.0829 28.8907 30.0416 28.97 29.9683L35.6417 23.8121L29.1468 35.0012C29.0925 35.0949 29.0583 35.206 29.0478 35.323C29.0373 35.4399 29.0509 35.5585 29.0872 35.6661C29.1235 35.7738 29.1811 35.8667 29.2541 35.9351C29.3271 36.0034 29.4127 36.0448 29.502 36.0548L31.9116 36.3242L25.4217 45.342Z" fill="#55C8F9"/>
<path d="M35.9983 28.7281L32.8057 33.0821C32.7586 33.1439 32.7213 33.2173 32.6961 33.2982C32.6708 33.3791 32.6581 33.4657 32.6587 33.5532C32.6593 33.6406 32.6731 33.7269 32.6994 33.8072C32.7257 33.8875 32.7639 33.9602 32.8117 34.0208C32.8596 34.0815 32.9162 34.129 32.9783 34.1605C33.0403 34.192 33.1065 34.207 33.173 34.2045C33.2394 34.202 33.3049 34.1821 33.3654 34.146C33.426 34.1098 33.4804 34.0582 33.5256 33.994L36.7182 29.64C36.7653 29.5783 36.8026 29.5048 36.8278 29.4239C36.853 29.3431 36.8658 29.2564 36.8652 29.169C36.8646 29.0815 36.8508 28.9952 36.8245 28.9149C36.7982 28.8346 36.76 28.762 36.7121 28.7013C36.6643 28.6406 36.6076 28.5932 36.5456 28.5616C36.4836 28.5301 36.4174 28.5151 36.3509 28.5176C36.2845 28.5201 36.219 28.54 36.1585 28.5761C36.0979 28.6123 36.0435 28.6639 35.9983 28.7281Z" fill="#55C8F9"/>
<path d="M30.4279 24.2598C30.5198 24.3854 30.646 24.4578 30.7786 24.4611C30.9111 24.4644 31.0393 24.3983 31.1348 24.2774L32.9617 21.965C33.0572 21.8441 33.1123 21.6782 33.1148 21.504C33.1173 21.3297 33.067 21.1612 32.975 21.0357C32.883 20.9101 32.7568 20.8377 32.6242 20.8345C32.4916 20.8312 32.3635 20.8973 32.268 21.0182L30.4412 23.3307C30.3457 23.4516 30.2907 23.6174 30.2882 23.7916C30.2857 23.9659 30.3359 24.1343 30.4279 24.2598Z" fill="#55C8F9"/>
<path d="M27.6463 32.4161L25.812 34.8272C25.7182 34.9505 25.6655 35.1177 25.6655 35.292C25.6655 35.4663 25.7182 35.6335 25.812 35.7567C25.9058 35.88 26.033 35.9492 26.1656 35.9492C26.2982 35.9492 26.4254 35.88 26.5192 35.7567L28.3534 33.3456C28.3998 33.2846 28.4367 33.2121 28.4618 33.1324C28.4869 33.0526 28.4998 32.9672 28.4998 32.8809C28.4998 32.7946 28.4869 32.7091 28.4618 32.6294C28.4367 32.5496 28.3998 32.4772 28.3534 32.4161C28.307 32.3551 28.2518 32.3067 28.1912 32.2737C28.1305 32.2406 28.0655 32.2236 27.9998 32.2236C27.9342 32.2236 27.8692 32.2406 27.8085 32.2737C27.7478 32.3067 27.6927 32.3551 27.6463 32.4161Z" fill="#55C8F9"/>
<path d="M19.7789 24.6238C20.0774 24.6238 20.3693 24.5074 20.6175 24.2894C20.8658 24.0714 21.0592 23.7616 21.1735 23.3991C21.2877 23.0365 21.3176 22.6376 21.2594 22.2527C21.2012 21.8679 21.0574 21.5143 20.8463 21.2368C20.6352 20.9594 20.3663 20.7704 20.0735 20.6938C19.7807 20.6173 19.4772 20.6566 19.2013 20.8067C18.9255 20.9569 18.6898 21.2112 18.5239 21.5375C18.3581 21.8637 18.2695 22.2473 18.2695 22.6397C18.27 23.1657 18.4291 23.67 18.7121 24.042C18.9951 24.4139 19.3787 24.6232 19.7789 24.6238ZM19.7789 21.9703C19.8797 21.9703 19.9782 22.0095 20.062 22.0831C20.1457 22.1567 20.211 22.2613 20.2496 22.3836C20.2882 22.506 20.2983 22.6406 20.2786 22.7705C20.259 22.9004 20.2104 23.0197 20.1392 23.1134C20.0679 23.207 19.9772 23.2708 19.8783 23.2967C19.7795 23.3225 19.6771 23.3092 19.584 23.2585C19.4909 23.2078 19.4113 23.122 19.3554 23.0119C19.2994 22.9017 19.2695 22.7723 19.2695 22.6398C19.2697 22.4623 19.3234 22.2921 19.4189 22.1666C19.5144 22.041 19.6438 21.9704 19.7789 21.9702V21.9703Z" fill="#55C8F9"/>
<path d="M19.7787 26.9492C20.2076 26.9507 20.6324 26.8409 21.0289 26.626C21.4254 26.4112 21.7857 26.0956 22.0892 25.6973L25.1848 21.9613C25.251 21.8814 25.2996 21.7795 25.3254 21.6663C25.3513 21.5532 25.3534 21.4329 25.3317 21.3183C25.3099 21.2036 25.2651 21.0988 25.2018 21.0149C25.1386 20.9309 25.0593 20.8709 24.9723 20.8412L23.9867 20.5044L26.4096 15.9525C26.4742 15.831 26.5057 15.6843 26.4989 15.5363C26.4921 15.3883 26.4474 15.2477 26.3721 15.1373C26.2968 15.0269 26.1953 14.9532 26.0841 14.9282C25.9729 14.9032 25.8585 14.9283 25.7596 14.9996L21.6699 17.9488L21.8194 16.126C21.8302 15.9948 21.8106 15.8623 21.7633 15.7459C21.7161 15.6295 21.6432 15.5345 21.5543 15.4733C21.4653 15.4121 21.3645 15.3874 21.2647 15.4026C21.165 15.4178 21.0711 15.4721 20.9951 15.5584L17.6701 19.3396C17.155 19.9083 16.7854 20.6715 16.6115 21.5257C16.4375 22.3798 16.4677 23.2837 16.6979 24.1145C16.9281 24.9454 17.3472 25.6631 17.8983 26.1702C18.4494 26.6773 19.1058 26.9494 19.7785 26.9494L19.7787 26.9492ZM18.3162 20.3433L18.3221 20.3366L20.6893 17.6444L20.5732 19.0603C20.5634 19.1797 20.5787 19.3004 20.6174 19.4092C20.6562 19.518 20.7168 19.6108 20.7928 19.6775C20.8689 19.7441 20.9573 19.7821 21.0486 19.7873C21.1399 19.7925 21.2306 19.7648 21.3107 19.707L24.3622 17.5061L22.7552 20.5252C22.709 20.612 22.6794 20.7123 22.669 20.8175C22.6587 20.9227 22.6678 21.0295 22.6957 21.129C22.7236 21.2285 22.7694 21.3177 22.8292 21.3889C22.8889 21.4601 22.9609 21.5112 23.039 21.5379L23.8321 21.809L21.4053 24.7377C21.4001 24.744 21.395 24.7505 21.39 24.7571C21.1724 25.0432 20.913 25.2684 20.6274 25.4191C20.3418 25.5698 20.036 25.6429 19.7283 25.634C19.4207 25.6252 19.1176 25.5344 18.8373 25.3674C18.557 25.2003 18.3054 24.9604 18.0976 24.662C17.8898 24.3636 17.7302 24.013 17.6283 23.6313C17.5264 23.2496 17.4844 22.8448 17.5048 22.4412C17.5252 22.0376 17.6076 21.6436 17.747 21.283C17.8864 20.9223 18.0799 20.6026 18.3159 20.3429L18.3162 20.3433Z" fill="#55C8F9"/>
<path d="M35.0095 42.1428C34.711 42.1427 34.4191 42.2591 34.1709 42.4771C33.9227 42.6951 33.7292 43.005 33.6149 43.3675C33.5007 43.73 33.4708 44.129 33.529 44.5139C33.5872 44.8987 33.731 45.2523 33.9421 45.5298C34.1532 45.8072 34.4221 45.9962 34.7149 46.0728C35.0077 46.1493 35.3112 46.11 35.5871 45.9599C35.8629 45.8097 36.0986 45.5554 36.2645 45.2291C36.4303 44.9029 36.5189 44.5192 36.5189 44.1268C36.5184 43.6008 36.3593 43.0965 36.0763 42.7246C35.7933 42.3526 35.4097 42.1434 35.0095 42.1428ZM35.0095 44.7963C34.9087 44.7963 34.8103 44.757 34.7265 44.6834C34.6427 44.6098 34.5774 44.5052 34.5389 44.3828C34.5003 44.2605 34.4903 44.1258 34.5099 43.9959C34.5296 43.8661 34.5781 43.7467 34.6494 43.6531C34.7206 43.5595 34.8114 43.4957 34.9102 43.4699C35.0091 43.4441 35.1115 43.4573 35.2046 43.508C35.2977 43.5587 35.3772 43.6446 35.4332 43.7547C35.4891 43.8648 35.519 43.9943 35.519 44.1267C35.5189 44.3043 35.4651 44.4745 35.3696 44.6001C35.2741 44.7256 35.1446 44.7962 35.0095 44.7964V44.7963Z" fill="#55C8F9"/>
<path d="M40.2065 42.3282L39.2118 41.988L41.9131 36.7753C41.9776 36.6509 42.0076 36.5012 41.9982 36.3512C41.9888 36.2012 41.9405 36.06 41.8614 35.9512C41.7822 35.8424 41.6771 35.7725 41.5635 35.7534C41.4499 35.7342 41.3348 35.7669 41.2373 35.8459L36.9106 39.3538L37.0535 37.6127C37.0642 37.4815 37.0447 37.3491 36.9974 37.2327C36.9501 37.1163 36.8773 37.0213 36.7884 36.96C36.6994 36.8988 36.5985 36.8742 36.4988 36.8894C36.3991 36.9046 36.3052 36.9589 36.2292 37.0452L32.9042 40.8264C32.5657 41.2001 32.2881 41.6599 32.0882 42.1782C31.8883 42.6965 31.7702 43.2625 31.741 43.8424C31.7119 44.4222 31.7722 45.0038 31.9184 45.5522C32.0646 46.1005 32.2937 46.6044 32.5919 47.0334C32.89 47.4624 33.2511 47.8078 33.6534 48.0486C34.0558 48.2895 34.491 48.421 34.9329 48.4351C35.3749 48.4492 35.8144 48.3456 36.2252 48.1307C36.6359 47.9158 37.0093 47.5939 37.323 47.1844L40.4186 43.4484C40.4848 43.3685 40.5334 43.2665 40.5592 43.1534C40.5851 43.0402 40.5873 42.92 40.5655 42.8053C40.5438 42.6907 40.4989 42.5859 40.4357 42.5019C40.3724 42.4179 40.2931 42.3579 40.2061 42.3282H40.2065ZM36.6394 46.2252C36.6341 46.2315 36.629 46.238 36.624 46.2446C36.4064 46.5305 36.147 46.7555 35.8615 46.906C35.5759 47.0566 35.2701 47.1296 34.9626 47.1206C34.655 47.1116 34.352 47.0209 34.0718 46.8538C33.7916 46.6867 33.5401 46.4468 33.3324 46.1485C33.1246 45.8502 32.965 45.4998 32.8631 45.1182C32.7612 44.7366 32.7192 44.3319 32.7395 43.9284C32.7598 43.5249 32.8421 43.1309 32.9814 42.7704C33.1206 42.4098 33.314 42.09 33.5499 41.8303L33.5561 41.8237L35.9233 39.1315L35.8072 40.5473C35.7971 40.6696 35.8134 40.7931 35.8541 40.9039C35.8948 41.0146 35.9584 41.1081 36.0375 41.1737C36.1166 41.2393 36.2082 41.2744 36.3018 41.2751C36.3953 41.2757 36.4872 41.2418 36.5668 41.1772L39.7668 38.5829L37.986 42.0192C37.9409 42.1063 37.9123 42.2063 37.9028 42.3109C37.8933 42.4155 37.903 42.5216 37.9312 42.6202C37.9594 42.7189 38.0052 42.8071 38.0647 42.8776C38.1243 42.9481 38.1959 42.9987 38.2735 43.0252L39.0666 43.2963L36.6394 46.2252Z" fill="#55C8F9"/>
<path d="M40.6798 32.1582L40.0798 32.8154C40.0294 32.8706 39.9877 32.9384 39.9572 33.0148C39.9267 33.0913 39.9079 33.1748 39.902 33.2608C39.896 33.3468 39.903 33.4334 39.9225 33.5158C39.9421 33.5982 39.9738 33.6748 40.0158 33.7411C40.0578 33.8074 40.1094 33.8621 40.1676 33.9023C40.2257 33.9424 40.2893 33.967 40.3547 33.9748C40.4201 33.9827 40.486 33.9735 40.5487 33.9478C40.6114 33.9221 40.6696 33.8804 40.7201 33.8252L41.3201 33.168C41.4219 33.0564 41.4859 32.8961 41.4979 32.7225C41.5099 32.5489 41.469 32.3762 41.3841 32.2423C41.2992 32.1084 41.1773 32.0243 41.0452 32.0085C40.9131 31.9927 40.7817 32.0466 40.6798 32.1582Z" fill="#55C8F9"/>
<path d="M44.2799 36.1015L43.6799 36.7587C43.578 36.8703 43.5141 37.0305 43.5021 37.2041C43.4901 37.3777 43.531 37.5505 43.6159 37.6844C43.7008 37.8183 43.8227 37.9024 43.9548 37.9181C44.0869 37.9339 44.2183 37.8801 44.3202 37.7685L44.9202 37.1113C45.022 36.9997 45.086 36.8394 45.098 36.6658C45.11 36.4922 45.0691 36.3195 44.9842 36.1856C44.8993 36.0517 44.7774 35.9676 44.6453 35.9518C44.5132 35.936 44.3818 35.9899 44.2799 36.1015Z" fill="#55C8F9"/>
<path d="M42.2799 38.7304L41.6799 39.3876C41.578 39.4992 41.5141 39.6594 41.5021 39.833C41.4901 40.0066 41.531 40.1794 41.6159 40.3133C41.7008 40.4472 41.8227 40.5313 41.9548 40.547C42.0869 40.5628 42.2183 40.509 42.3202 40.3974L42.9202 39.7402C43.022 39.6286 43.086 39.4684 43.098 39.2948C43.11 39.1211 43.0691 38.9484 42.9842 38.8145C42.8993 38.6806 42.7774 38.5965 42.6453 38.5807C42.5132 38.5649 42.3818 38.6188 42.2799 38.7304Z" fill="#55C8F9"/>
<path d="M38.6802 34.349L37.6802 35.4443C37.6293 35.4994 37.5872 35.5671 37.5563 35.6437C37.5255 35.7202 37.5064 35.804 37.5002 35.8902C37.4941 35.9765 37.501 36.0635 37.5205 36.1462C37.54 36.2289 37.5717 36.3058 37.6139 36.3723C37.6561 36.4389 37.7079 36.4938 37.7663 36.5339C37.8247 36.5741 37.8885 36.5987 37.9542 36.6063C38.0198 36.6139 38.0859 36.6044 38.1488 36.5783C38.2116 36.5521 38.2699 36.51 38.3203 36.4541L39.3203 35.3587C39.3716 35.3038 39.4141 35.2361 39.4453 35.1595C39.4765 35.0829 39.4959 34.9989 39.5022 34.9123C39.5086 34.8258 39.5018 34.7385 39.4824 34.6554C39.4629 34.5723 39.431 34.4952 39.3887 34.4284C39.3463 34.3616 39.2943 34.3065 39.2357 34.2663C39.1771 34.2261 39.1129 34.2017 39.047 34.1943C38.9811 34.1869 38.9148 34.1968 38.8518 34.2233C38.7888 34.2499 38.7305 34.2926 38.6802 34.349Z" fill="#55C8F9"/>
<path d="M45.8536 30.884C45.8071 30.8229 45.752 30.7745 45.6914 30.7415C45.6307 30.7085 45.5657 30.6915 45.5 30.6915C45.4343 30.6915 45.3693 30.7085 45.3087 30.7415C45.248 30.7745 45.1929 30.8229 45.1464 30.884L44.6464 31.5412C44.5527 31.6645 44.5 31.8316 44.5 32.006C44.5 32.1803 44.5527 32.3474 44.6464 32.4707C44.7402 32.594 44.8674 32.6632 45 32.6632C45.1326 32.6632 45.2598 32.594 45.3536 32.4707L45.8536 31.8135C45.9 31.7524 45.9368 31.68 45.962 31.6002C45.9871 31.5205 46 31.435 46 31.3487C46 31.2624 45.9871 31.1769 45.962 31.0972C45.9368 31.0175 45.9 30.945 45.8536 30.884Z" fill="#55C8F9"/>
<path d="M40.6465 22.9974L40.1465 23.6546C40.0527 23.7778 40 23.945 40 24.1193C40 24.2936 40.0527 24.4608 40.1465 24.5841C40.2402 24.7073 40.3674 24.7766 40.5 24.7766C40.6326 24.7766 40.7598 24.7073 40.8536 24.5841L41.3536 23.9268C41.4474 23.8036 41.5 23.6364 41.5 23.4621C41.5 23.2878 41.4474 23.1206 41.3536 22.9974C41.2598 22.8741 41.1326 22.8049 41 22.8049C40.8674 22.8049 40.7402 22.8741 40.6465 22.9974Z" fill="#55C8F9"/>
<path d="M35 19.5189C35.0657 19.519 35.1307 19.502 35.1914 19.469C35.2521 19.436 35.3072 19.3875 35.3536 19.3264L35.8536 18.6692C35.9474 18.5459 36 18.3788 36 18.2045C36 18.0302 35.9474 17.863 35.8536 17.7397C35.7598 17.6165 35.6326 17.5472 35.5 17.5472C35.3674 17.5472 35.2402 17.6165 35.1465 17.7397L34.6465 18.3969C34.5765 18.4888 34.5289 18.606 34.5096 18.7334C34.4903 18.8609 34.5002 18.9931 34.5381 19.1132C34.5759 19.2333 34.64 19.3359 34.7222 19.4081C34.8045 19.4803 34.9011 19.5189 35 19.5189Z" fill="#55C8F9"/>
<path d="M44.3536 32.8556C44.3071 32.7946 44.252 32.7461 44.1914 32.7131C44.1307 32.6801 44.0657 32.6631 44 32.6631C43.9343 32.6631 43.8693 32.6801 43.8087 32.7131C43.748 32.7461 43.6929 32.7946 43.6464 32.8556L42.6464 34.17C42.6 34.231 42.5632 34.3035 42.5381 34.3832C42.5129 34.4629 42.5 34.5484 42.5 34.6347C42.5 34.721 42.5129 34.8065 42.5381 34.8862C42.5632 34.966 42.6 35.0384 42.6464 35.0994C42.6929 35.1605 42.748 35.2089 42.8087 35.2419C42.8693 35.2749 42.9344 35.2919 43 35.2919C43.0657 35.2919 43.1307 35.2749 43.1914 35.2419C43.252 35.2089 43.3071 35.1605 43.3536 35.0994L44.3536 33.785C44.4 33.724 44.4368 33.6516 44.462 33.5718C44.4871 33.4921 44.5 33.4066 44.5 33.3203C44.5 33.234 44.4871 33.1485 44.462 33.0688C44.4368 32.9891 44.4 32.9166 44.3536 32.8556Z" fill="#55C8F9"/>
<path d="M37.6465 27.8702C37.6929 27.9312 37.748 27.9796 37.8087 28.0127C37.8693 28.0457 37.9344 28.0627 38 28.0627C38.0657 28.0627 38.1307 28.0457 38.1914 28.0127C38.252 27.9796 38.3072 27.9312 38.3536 27.8702L39.3536 26.5557C39.4474 26.4325 39.5 26.2653 39.5 26.091C39.5 25.9167 39.4474 25.7495 39.3536 25.6262C39.2598 25.503 39.1326 25.4337 39 25.4337C38.8674 25.4337 38.7402 25.503 38.6465 25.6262L37.6465 26.9407C37.6 27.0017 37.5632 27.0742 37.5381 27.1539C37.5129 27.2336 37.5 27.3191 37.5 27.4054C37.5 27.4917 37.5129 27.5772 37.5381 27.6569C37.5632 27.7367 37.6 27.8091 37.6465 27.8702Z" fill="#55C8F9"/>
<path d="M28.6465 16.6975C28.6929 16.7585 28.748 16.807 28.8087 16.84C28.8693 16.873 28.9344 16.89 29 16.89C29.0657 16.89 29.1307 16.873 29.1914 16.84C29.252 16.807 29.3072 16.7585 29.3536 16.6975L29.8536 16.0403C29.9474 15.9171 30 15.7499 30 15.5756C30 15.4013 29.9474 15.2341 29.8536 15.1109C29.7598 14.9876 29.6326 14.9184 29.5 14.9184C29.3674 14.9184 29.2402 14.9876 29.1465 15.1109L28.6465 15.7681C28.6 15.8291 28.5632 15.9016 28.5381 15.9813C28.5129 16.061 28.5 16.1465 28.5 16.2328C28.5 16.3191 28.5129 16.4046 28.5381 16.4843C28.5632 16.564 28.6 16.6365 28.6465 16.6975Z" fill="#55C8F9"/>
<path d="M27.1464 17.7397L26.1465 19.0541C26.0527 19.1774 26 19.3445 26 19.5188C26 19.6931 26.0527 19.8603 26.1465 19.9835C26.2402 20.1068 26.3674 20.176 26.5 20.176C26.6326 20.176 26.7598 20.1068 26.8536 19.9835L27.8536 18.6692C27.9473 18.5459 28 18.3787 28 18.2044C28 18.0301 27.9473 17.863 27.8536 17.7397C27.7598 17.6165 27.6326 17.5472 27.5 17.5472C27.3674 17.5472 27.2402 17.6165 27.1464 17.7397Z" fill="#55C8F9"/>
<path d="M29.8334 11.6323C29.9526 11.6324 30.0679 11.5762 30.1584 11.474L31.325 10.1596C31.3755 10.1037 31.417 10.0352 31.4472 9.95807C31.4774 9.88094 31.4957 9.79672 31.5011 9.71025C31.5064 9.62379 31.4986 9.53679 31.4783 9.45428C31.4579 9.37177 31.4253 9.29538 31.3823 9.22952C31.3394 9.16365 31.2869 9.10961 31.228 9.07052C31.1691 9.03143 31.1049 9.00805 31.0391 9.00174C30.9732 8.99543 30.9071 9.00631 30.8445 9.03376C30.7819 9.0612 30.7241 9.10466 30.6743 9.16164L29.5076 10.4761C29.43 10.5635 29.3747 10.68 29.349 10.8101C29.3234 10.9401 29.3286 11.0773 29.3641 11.2033C29.3996 11.3293 29.4636 11.4379 29.5475 11.5146C29.6314 11.5913 29.7312 11.6324 29.8334 11.6323Z" fill="#55C8F9"/>
<path d="M27.4999 14.2611C27.6191 14.2612 27.7344 14.2051 27.8249 14.1029L28.8249 12.9763C28.9256 12.8629 28.9878 12.7015 28.998 12.5277C29.0082 12.3539 28.9654 12.182 28.8791 12.0496C28.8364 11.9841 28.7843 11.9302 28.7257 11.8912C28.6672 11.8521 28.6033 11.8286 28.5379 11.822C28.4057 11.8086 28.2748 11.8648 28.1741 11.9783L27.1741 13.1049C27.0965 13.1924 27.0412 13.3089 27.0155 13.4389C26.9899 13.569 26.9951 13.7062 27.0306 13.8321C27.0661 13.9581 27.1301 14.0667 27.214 14.1434C27.2979 14.2201 27.3977 14.2612 27.4999 14.2611Z" fill="#55C8F9"/>
<path d="M24.7858 12.2888C24.9069 12.289 25.0238 12.2312 25.1149 12.1262L26.8292 10.1546C26.929 10.0398 26.99 9.87764 26.9988 9.70372C27.0077 9.5298 26.9636 9.35839 26.8762 9.22721C26.7889 9.09602 26.6655 9.01581 26.5332 9.00421C26.4009 8.9926 26.2705 9.05057 26.1707 9.16535L24.4564 11.137C24.3798 11.225 24.3255 11.3417 24.3007 11.4714C24.2759 11.6011 24.2818 11.7377 24.3176 11.8628C24.3534 11.988 24.4174 12.0959 24.5011 12.172C24.5847 12.2481 24.6841 12.2889 24.7858 12.2888Z" fill="#55C8F9"/>
<path d="M22.5002 14.9184C22.6213 14.9186 22.7383 14.8608 22.8293 14.7558L23.9721 13.4414C24.0713 13.3264 24.1318 13.1644 24.1404 12.9909C24.1489 12.8174 24.1048 12.6465 24.0177 12.5157C23.9307 12.3848 23.8077 12.3047 23.6757 12.2927C23.5438 12.2808 23.4136 12.3381 23.3137 12.4521L22.1708 13.7665C22.0942 13.8546 22.0399 13.9713 22.0151 14.101C21.9903 14.2307 21.9962 14.3673 22.032 14.4924C22.0678 14.6176 22.1318 14.7255 22.2155 14.8016C22.2991 14.8777 22.3985 14.9185 22.5002 14.9184Z" fill="#55C8F9"/>
<path d="M42.2782 16.2328C42.4017 16.233 42.5208 16.1728 42.6125 16.064L44.8347 13.4352C44.885 13.378 44.926 13.3082 44.9555 13.2299C44.985 13.1516 45.0023 13.0664 45.0064 12.9792C45.0105 12.892 45.0014 12.8046 44.9795 12.7222C44.9576 12.6397 44.9235 12.5637 44.879 12.4988C44.8346 12.4339 44.7807 12.3813 44.7206 12.344C44.6605 12.3067 44.5954 12.2856 44.529 12.2818C44.4626 12.278 44.3963 12.2917 44.334 12.322C44.2717 12.3522 44.2146 12.3986 44.166 12.4582L41.9438 15.0871C41.8687 15.176 41.8158 15.2928 41.7922 15.422C41.7685 15.5513 41.7753 15.6869 41.8115 15.811C41.8477 15.9351 41.9117 16.0418 41.995 16.1171C42.0783 16.1924 42.1771 16.2328 42.2782 16.2328Z" fill="#55C8F9"/>
<path d="M39.5 19.5189C39.6235 19.519 39.7426 19.4589 39.8343 19.3501L40.9454 18.0357C40.9956 17.9785 41.0366 17.9087 41.0661 17.8305C41.0956 17.7522 41.1129 17.6669 41.117 17.5798C41.1211 17.4926 41.112 17.4052 41.0901 17.3227C41.0683 17.2403 41.0341 17.1643 40.9897 17.0994C40.9452 17.0345 40.8914 16.9818 40.8313 16.9446C40.7712 16.9073 40.706 16.8862 40.6396 16.8824C40.5732 16.8786 40.5069 16.8923 40.4446 16.9225C40.3823 16.9528 40.3252 16.9991 40.2766 17.0588L39.1655 18.3732C39.0903 18.4621 39.0374 18.5789 39.0138 18.7082C38.9902 18.8374 38.997 18.973 39.0332 19.0971C39.0694 19.2212 39.1334 19.328 39.2168 19.4033C39.3001 19.4785 39.3989 19.5189 39.5 19.5189Z" fill="#55C8F9"/>
<circle cx="30" cy="30" r="27.5" stroke="#55C8F9" stroke-width="5"/>
</svg>
